<svg id="ba3fff59-87b3-45a4-b299-e4591f22c0f6" data-name="Layer 1" xmlns="http://www.w3.org/2000/svg" viewBox="0 0 397.83 452.39"><title>Origin51_logotype</title><polygon points="264.19 141.94 273.64 156.47 271.45 127.4 264.19 141.94" fill="#acbbbe"/><path d="M115.25,220.83q6.85,0,20.07,2.64t20.07,2.64c4.92,0,9-.87,12.15-2.64a25.6,25.6,0,0,0,7.39,0h111.5l8.45,8.45v39.66h64.43V256.74c-3.53.36-6,0-7.4-1.06,4.11-3.51,6.57-6.51,7.4-9a21.46,21.46,0,0,1-1.06-6.87v-5.28a22.84,22.84,0,0,0,1.06-5.81,43.29,43.29,0,0,0-1.59-9.51,43,43,0,0,1-1.58-9.5,33.56,33.56,0,0,1,3.17-14.26L331.84,173.3v-9q-21.12,5.82-75,5.81c-10.92,0-75.59-.52-77.71-1.58a8.27,8.27,0,0,1-7.39,4.23q-4.24,0-10-3.7-3.71-14.79-3.7-24.3c0-5.62,1.06-9.5,3.17-11.61,9.15,0,81-.61,99.09-1.85s31.76-1.85,40.93-1.85a271.63,271.63,0,0,1,50.16,4.76q-1.58-32.2-1.05-48.06c2.46-2.81,3.69-7.4,3.69-13.73q-4.75-5.28-9-5.28-2.12,0-6.33.26c-2.82.18-4.75.26-5.81.26q-16.9.69-33.27.69-20.08,1.38-32.22,6.18a18.52,18.52,0,0,0-10-2.64H185q-10-2.64-14.79-2.64-7.39,0-11.61,2.64a44,44,0,0,0-15.84-2.64h-4.23c-4.94,1.77-9,2.64-12.14,2.64H112.08q-1.06,0-6.86,6.33c-1,0-2.64-.6-4.75-1.84a15.35,15.35,0,0,0-3.7-1.85H95.71l9.51,148.92A18.59,18.59,0,0,1,115.25,220.83Z" transform="translate(-95.71 -67.16)" fill="#acbbbe"/><path d="M360.89,402l-6.87-3.7a9,9,0,0,1,5.29-2.64A8.25,8.25,0,0,1,354,394a10,10,0,0,0,1.16-.81h-60.3v42.52q5.81,3.72,5.81,6.34a22.25,22.25,0,0,1-.54,4.23,22.63,22.63,0,0,0-.53,3.7c-15.24,3.17-89.37,4.75-106,4.75q-19.17,0-23.42-4.22,0-13.2-1.32-40.41c-.16-3.33-.3-6.5-.44-9.53H106.64c-.16,8.5-.48,17.95-1,28.92-1.51,29,.82,51.25,1.17,52.66,14.08,15.84,32.43,25.56,40.18,33.31H334L354,482.22q7.39-13.19,6.87-66Z" transform="translate(-95.71 -67.16)" fill="#acbbbe"/><path d="M482.28,165.29l1.09,8.17,3.81,11.63s8.18-25.44,6-29.25c-1.28-2.23-7.43,7.92-7.43,7.92C485.26,164.28,483.91,162.74,482.28,165.29Z" transform="translate(-95.71 -67.16)" fill="#acbbbe"/><path d="M415.74,455.42l.58,62.81q7-2.09,18.71-2.08c6.85,0,27.29.69,40.7,2.08q1.93-26,2.53-62.81Z" transform="translate(-95.71 -67.16)" fill="#acbbbe"/><path d="M412.11,173.36a19.06,19.06,0,0,0-1.4,6.77q0,5.75,4.21,8.34c-1.25,1.74-2.66,2.6-4.21,2.6a77.8,77.8,0,0,1,4.21,11l-2.81,4.69a6.28,6.28,0,0,1,1.87,4.17,2.31,2.31,0,0,1-.46,1.56l.54,59.14h62.61v-.1a54.85,54.85,0,0,0-.47-6,55.17,55.17,0,0,1-.47-6q0-33.35,2.81-45.86A141.28,141.28,0,0,1,475.73,197a6.41,6.41,0,0,1,4.21-1.56,87.31,87.31,0,0,1-5.61-12,5.26,5.26,0,0,0,2.34-4.69,23.38,23.38,0,0,0-1.17-6,22.68,22.68,0,0,1-1.17-6,8.58,8.58,0,0,1,4.21-7.81c0-4.51-.63-7.12-1.87-7.82L474.8,72.41c-12.16-1.73-33.69-2.6-44-2.6s-18.71.87-25.26,2.6c-.63,4.17-1.09,7.3-1.4,9.38q-20.58,21.88-30.4,33.88v58.21q8-6.25,13.09-6.26a4.82,4.82,0,0,1,2.34.52q3.74-.51,10.06-5.72t10.52-5.74A74.84,74.84,0,0,1,412.11,173.36Z" transform="translate(-95.71 -67.16)" fill="#acbbbe"/><path d="M377.12,265.38c.83-7.57,0-18.19,0-52.83,0-1.17.16-1.9.47-2.18s.5-.29.55,0,.07-3.21.07-10.48q0-6.12-1.09-7l18.4-2.17c.52,7.57,3.54,120.51,3.54,123.13v31.88q0,21.39.78,26.2a54.84,54.84,0,0,0-.78,8.73v36.25a35.59,35.59,0,0,1-.63,8.3,9.12,9.12,0,0,1,.63,3.06c0,.87-3,2.53-2.16,4.57-.41-.3,2.37,6.78,1.53,7.65,0,1.46.1,66.08-.95,77.73q-13.26,0-18.15,1.31-2.2-44.11-2.21-60.7V324.78q0-4.81-.24-14.63t-.23-14.63c0-1.17.08-3,.23-5.46s.24-4.3.24-5.46C377.11,279.94,378,266.54,377.12,265.38Z" transform="translate(-95.71 -67.16)" fill="#fff"/><path d="M169.37,358l-.79.64c-.08.32-.13,2.67-.13,7.06a8.26,8.26,0,0,1-.65,3.85l.6.64a5.38,5.38,0,0,0-1,.64,32.39,32.39,0,0,0,1.45,4.33q-.36.48-1.08,1.29l.6.32L168,380.6a1.06,1.06,0,0,0-.24.64l.6,1.12a1.18,1.18,0,0,0-.6,1.13,28.33,28.33,0,0,0,.3,3.52,28,28,0,0,1,.3,3.37,3.45,3.45,0,0,1-1.68-1.44,1.65,1.65,0,0,0-.36,1.44h-.24q-.72,0-1.32-1.44l-.6,1a10.93,10.93,0,0,0-3.67-.3q-2.82.06-3.66-.66a.42.42,0,0,0-.48.48h-3.24c-3.28,0-26.86-.16-29-.48l-.36.48c-.56-.11-4.17-.16-10.81-.16-3.84,0-6.21-.38-7.09-1.12a1.87,1.87,0,0,1-1.56.8q-1.8-31.6-1.8-52.94c0-5.88.26-43,.26-55.61,0-.65-.77-11-.51-16.68,0-.64.74-2.17.25-2.71a5.51,5.51,0,0,1,.73-1.12L123,236.78l40.25,1a11.13,11.13,0,0,1,3.83.48v3.69c-.08,1.5-.12,2.67-.12,3.53q0,16.69,1.45,18.61c-.14,1.28-.46,3.16-1,5.62a4.3,4.3,0,0,1,.37,2.08,19.34,19.34,0,0,1-.18,2.25,19.82,19.82,0,0,0-.19,2.24,3.16,3.16,0,0,0,1,2.57,60.7,60.7,0,0,0-.6,8.66,12.13,12.13,0,0,1,.6,4.18l-1,1.12,1.45,36.81-.48.8v8.82a2.1,2.1,0,0,1-.38.57.65.65,0,0,0-.22.4,2.61,2.61,0,0,0,.3,1,2.61,2.61,0,0,1,.3,1v.8a2.75,2.75,0,0,0,.48,1.29,42.17,42.17,0,0,0-.28,6.25,50.15,50.15,0,0,1-.2,6.1A4.1,4.1,0,0,0,169.37,358Zm-16.09-.46a2,2,0,0,0-.48-1.44c.08-1.81,0-4.38-.11-7.68l-.42-1.29a5.35,5.35,0,0,1-.32-1.6q0-6.4.31-16.65c.1-9.08.2-47.8.3-49.93a3.07,3.07,0,0,1-1.45-.49l.84-1.76v-9.76a92.51,92.51,0,0,1,.61-11.53h-7c-4.56,0-15.73-.22-19.64-.64,0,1-11,12.47-11.33,13.54.32.1.81,1.71.81,2.35l-.6,1.44a60.66,60.66,0,0,1,.6,9.31v6.4c.08,3.43.36,5.51.85,6.26-.13.43-.41,34-.85,34.41L117,329.9a11.47,11.47,0,0,1-2,2.25,37.48,37.48,0,0,0,.66,5.77,37.88,37.88,0,0,1,.67,5.78,16.42,16.42,0,0,1-.85,5.13,6.5,6.5,0,0,0,1.21,1.93,2.87,2.87,0,0,0-.12,1v1a6.21,6.21,0,0,1,.12,1.12,1.64,1.64,0,0,1-1.21.81c.3.64.7,1.6,1.21,2.88-.45.54-.85.81-1.21.81a6.5,6.5,0,0,1,1.21,4,32.38,32.38,0,0,1-.3,3.69,30,30,0,0,0-.31,3.53,6.65,6.65,0,0,0,.37,2.4c7.08-.64,31.17-1,36.4-1,.08-1.49.12-3,.12-4.48a32.69,32.69,0,0,0-.36-5.61Q153.28,360.09,153.28,357.52Z" transform="translate(-95.71 -67.16)" fill="#fff"/><path d="M248,285.34a4,4,0,0,1-1.39,1.46c-6.47-.54-5.87,2.47-6.34,2.47-1.48,0-24.22-1.5-24.86-.74,1.48,8.69,21.63,96,23.11,103.57q1.93,6.84,4.58,20.84a36.57,36.57,0,0,0,.83,3.59,17,17,0,0,1,.69,4.07,3.27,3.27,0,0,1-.41,1.79,1,1,0,0,0,1.11.32c.09.76.25,2,.48,3.59a29.56,29.56,0,0,1,.35,3.91,8.22,8.22,0,0,1-.28,2.28,2.46,2.46,0,0,0,1.11.81q.56,3.26,1.25,9.77H234.18c-1.28-4.34-2.18-13.58-4.66-22.26a275.4,275.4,0,0,1-8.43-33.43c-.37-1.19-15.23-77.24-15.69-79.74-.28-3.25-3-13-4-19.44a34.65,34.65,0,0,0-5.7.54c0,1.41.56,10.43.56,11.19.64,14.44,1,100.69,1,100.48V416.2c0,1,0,2.39.14,4.24s.14,3.2.14,4.07q0,5.37-1.38,17.58h-2.89a64,64,0,0,0-10.59,1q-1.38-1.8-1.52-6.53v-7a23.55,23.55,0,0,0-.83-7.35,14,14,0,0,0,.83-5.55c0-1.53-.14-3.81-.41-6.86s-.42-5.33-.42-6.86a10.23,10.23,0,0,1,.55-3.59,3.06,3.06,0,0,1-1.24-2c0-.22.18-.27.55-.16q.13.65.14-4.9a14.05,14.05,0,0,0-.69-4.9c.46-2,.69-82.57.69-83.55,0-1.2-.07-3-.21-5.39s-.21-4.08-.21-5.06c-.18-8.17-.27-22.16-.27-28.69V238.57c0-1.19.32-1.79,1-1.79,5.92,0,26.41.08,38.06.24s20.4.24,26.23.24v2.12a29.59,29.59,0,0,0,.28,4.24c.09.76.37,2.17.83,4.23a23.8,23.8,0,0,1,.7,4.72,8,8,0,0,1-.42,2.77Zm-15.59-13.26c-.18-1.08-.27-8.92-.27-10.23,0-.75,0-1.92.13-3.5s.14-2.74.14-3.5H194.91a22.56,22.56,0,0,0,.42,3.67,23.27,23.27,0,0,1,.41,3.66c0,1.3-.27,9-.83,9.9Z" transform="translate(-95.71 -67.16)" fill="#fff"/><path d="M281.5,389.93q-1.11,7.13-1.11,39.7c0,.74-.14,1.2-.41,1.37s-.44.19-.49,0-.07,2-.07,6.58c0,2.55.33,4,1,4.38H262.76A114.17,114.17,0,0,0,261,429.63a23.09,23.09,0,0,1,.34-3.28,15.31,15.31,0,0,0,.07-4.38q.28-3.29.28-7.12,0-16.69-1-38.88a1,1,0,0,0-1.25-.55v-.82a16.41,16.41,0,0,0-.42-4.38c-.27.18.37.82,2,1.92v-26q0-13.41-.7-16.42a24.84,24.84,0,0,0,.7-5.48V301.49a16.14,16.14,0,0,1,.55-5.2,4.36,4.36,0,0,1-.55-1.92v-2.19a9.71,9.71,0,0,0-1.11-4.92c.36.18.92,0,1.66-.55a9.73,9.73,0,0,0-.55-3c.06-1.28.24-3,.55-5.21q-.56-8.21-.55-16.15A194.09,194.09,0,0,1,262.36,238q11.75,0,16.08-.82,1.95,27.66,1.95,38.06v84.06c0,2,.07,5.06.21,9.17s.21,7.17.21,9.17c0,.73-.07,1.88-.21,3.42s-.21,2.7-.21,3.43C280.39,387.38,280.76,389.21,281.5,389.93Z" transform="translate(-95.71 -67.16)" fill="#fff"/><path d="M363.91,383c-.74.36-2.7.55-5.89.55q-7.25,0-8.35-.83a29.54,29.54,0,0,1-8.12.83c-2.9,0-30-.12-32.19-.36a9.84,9.84,0,0,1-2.12-.44,9.37,9.37,0,0,0-2.34-.45c-.37,0-.77.42-1.22,1.25a45.44,45.44,0,0,0-8.12-.42q-.9-9.89-.89-21c0-.92-.06-2.29-.17-4.11s-.17-3.13-.17-4q0-6.27-.33-18.6t-.34-18.6a12.29,12.29,0,0,0-.16-1.67,12.81,12.81,0,0,1-.17-1.68q0-2.93-.11-8.84c-.08-4-.11-7-.11-9,0-8.18.22-13,.67-14.49q2.33.56,13.46.55c3.19,0,32.6.05,39,.14s11.16.14,14.36.14a2.63,2.63,0,0,0,.78,1.25,45.73,45.73,0,0,0-.45,6.38,25.7,25.7,0,0,0,.11,2.64c.37,2.59.56,3.52.56,2.77a6.1,6.1,0,0,1-.28,1.53,5.8,5.8,0,0,0-.28,1.53,4,4,0,0,0,.34,1.52.45.45,0,0,0-.12.28,2,2,0,0,0,.17.7l.28.69.89,14.15h-16V298.46l-1-.83H305.35a6.66,6.66,0,0,1-.89,2.36l1.11.69v37.06a1.06,1.06,0,0,0,.67.83,15.25,15.25,0,0,0-.67,2.77,2.53,2.53,0,0,1,.67,1.53,72.45,72.45,0,0,1-.67,9l1.12.83a12.5,12.5,0,0,0-1.12,4.17,1.26,1.26,0,0,0,.67,1.11v2.49a2.83,2.83,0,0,0,.45,1.95,4,4,0,0,1-.45,1.39c.18.92.28,1.48.3,1.66a6.73,6.73,0,0,1,0,.69,2.1,2.1,0,0,1-.33,1.11l41.59-1.52c-.15.09-.22.18-.22.28s.17.27.5.27a1,1,0,0,0,.5-.14v-4.71q0-4.44-.56-11.8-.66-8.75-.77-11.79l-.34.13a6,6,0,0,0-2.11-.27l-7.29.41-.89-15.26,1.11.41h1.56c1.11,0,2.74-.06,4.9-.2s3.78-.21,4.89-.21h6.12a54,54,0,0,0,5.9-.28.46.46,0,0,1,.45-.28c-.22,0,.22.1,1.33.28v18.46c.06.83.17,2.13.34,3.88q.33,4.73.33,11.94v16.23Q363.58,378.67,363.91,383Z" transform="translate(-95.71 -67.16)" fill="#fff"/><path d="M477.3,366.27a3,3,0,0,1-1.23,2.64,33.26,33.26,0,0,0,.31,3.64,35.67,35.67,0,0,1,.3,3.86v.67a2.85,2.85,0,0,0,.62,1.54,21.46,21.46,0,0,1-.62,3.31v7.94a10.84,10.84,0,0,0,.62,4,3.09,3.09,0,0,1-1.23,2.21,3.45,3.45,0,0,0,1.23,1.76,3.35,3.35,0,0,0-1.69,1.32,2.85,2.85,0,0,0,1.69.45,9.38,9.38,0,0,0-1.69,5.51c0,1.33.36,2.06,1.07,2.21a1.32,1.32,0,0,0-1.07.66v2.42a9.8,9.8,0,0,1,1.69.89c-.73,0-1.14.58-1.24,1.76a161.57,161.57,0,0,0-1.4,30H457a5.39,5.39,0,0,0-.93-2.64c.1-.44.26-1.1.46-2-.3,0-.71-.66-1.22-2a45.78,45.78,0,0,0-3.05-10.56q-2.91-6.6-9.32-30.8-7.79-29-11.46-46c0,1-.05,2.6-.15,4.73s-.15,3.7-.15,4.72a25.59,25.59,0,0,0,1.22,9,19.62,19.62,0,0,1-.38,3,18.74,18.74,0,0,0-.38,3.2,2.33,2.33,0,0,0,.3,1.31,58.45,58.45,0,0,0,.46,6.05,58.64,58.64,0,0,1,.46,6v1.76a29.28,29.28,0,0,0-.46,4q0,.66.18.66c.06,0,.15-.07.28-.22l-1.2,47.08a12.42,12.42,0,0,1-5.7,1.1c-1.81,0-2.86-.37-3.16-1.1-.2,0-.45.18-.75.55s-.55.55-.75.55a20,20,0,0,1-5.55-.66q-2.6-93.31-2.59-104.34,0-30.89,1.83-55.37a22.64,22.64,0,0,0,7.33,1.1,17.94,17.94,0,0,0,6.87-1.1,27.73,27.73,0,0,1,.15,3.94c.41.44,1,1,1.69,1.76l9,28.72a6.51,6.51,0,0,0,1.52,2.85l-.3.88c.4,1.17,1,2.92,1.68,5.26l-.46.44a13,13,0,0,0,1.68,3.51,24.33,24.33,0,0,1,.46,3.72q3,9,5.19,14h-.3a1,1,0,0,0-.92.67,5.53,5.53,0,0,1,1.71,2q1.24,5.07,4,15,.46,5.07.93,7.92a19.26,19.26,0,0,0,2.33,7l-2.9-92.37q.45-1.32,1.37-5.3h16q.91,16.77,1.83,27.57v4.86a46.32,46.32,0,0,0,.57,6.17c.37.59.74.88,1.11.88a1.74,1.74,0,0,0-1.22.67c.28.58.68,1.54,1.22,2.86v8.39c0,1.47-.25,2.42-.76,2.86a17.86,17.86,0,0,0,.38,3.09,17.12,17.12,0,0,1,.38,3.09,3.11,3.11,0,0,1-.76,2.43l1.83,2.64a4.8,4.8,0,0,0-1.07,3.09,7.47,7.47,0,0,0,1.69,4.63c-1,0-1.55.3-1.69.89.72.73,1.07,1.24,1.07,1.54v3.53a20.52,20.52,0,0,0,.31,2.87A22.34,22.34,0,0,1,477.3,366.27Z" transform="translate(-95.71 -67.16)" fill="#fff"/></svg>