<svg id="a723115f-2ec7-4722-a77b-0e3c4f104bd8" data-name="Layer 1" xmlns="http://www.w3.org/2000/svg" viewBox="0 0 967.14 297.85"><title>Origin51_alt-logotype</title><path d="M419.74,223.91a8.31,8.31,0,0,1-2.89,3.05c-13.45-1.13-12.21,5.12-13.17,5.12-3.08,0-50.34-3.11-51.68-1.53,3.07,18,23.62,35.57,34.57,55.93,4.66,8.68,14.59,19.56,14.59,21.59,0,1.58,3.95,10,6.38,8.51,0,4.87,4.3,6.65,4.78,10s3.58,5.48,3.58,7.5a17.56,17.56,0,0,1-.58,4.74,5,5,0,0,0,2.31,1.7c.76,4.51,4.06,10.48,5,19.5-4.58,0-11.69.8-16.47.8H391c-2.68-9-12.35-13.14-17.5-31.2-5.78-9.12-14.52-20.9-19.16-25.53-.76-2.48-15.76-19.74-16.72-24.93-.57-6.77-19.85-36-21.76-49.32-2.1-.22-7.7.43-12.47,1.11,0,2.93,1.15,21.68,1.15,23.26,1.35,30,2,18.39,2,17.94V305q0,3,.29,8.8t.29,8.46q0,11.18-2.86,36.55h-6a133.39,133.39,0,0,0-22,2q-2.87-3.74-3.14-13.57v-14.6c0-7-.58-12.1-1.73-15.27q1.72-3.72,1.73-11.54,0-4.74-.87-14.25t-.86-14.25a21.21,21.21,0,0,1,1.15-7.47q-2.59-2.37-2.6-4.08c0-.45.39-.56,1.16-.33q.29,1.36.29-10.19a29,29,0,0,0-1.45-10.17c1-4.08,1.45-35.57,1.45-37.62q0-3.72-.44-11.19t-.43-10.53c-.39-17-.58-46-.58-59.62V71.87c0-2.49.67-3.74,2-3.74,12.31,0,62.61.17,86.84.51s42.4.51,54.51.51v4.4a61.91,61.91,0,0,0,.58,8.8c.19,1.58.76,4.51,1.73,8.8a48.94,48.94,0,0,1,1.44,9.81,16.79,16.79,0,0,1-.87,5.76Z" transform="translate(-57.14 -65.64)" fill="#fff"/><path d="M650.47,114.55c1.44-4.67,0-11.22,0-32.6a1.25,1.25,0,0,1,.81-1.35c.54-.18.86-.18,1,0a53.51,53.51,0,0,0,.13-6.46c0-2.52-.63-4-1.89-4.31H684.7c.9,4.67,3.48,73,3.48,74.64V253.2q0,13.2,1.35,16.17a13.13,13.13,0,0,0-1.35,5.38v22.37q0,3.76-1.08,5.12a3,3,0,0,1,1.08,1.89c0,.54-5.14,1.56-3.7,2.82-.72-.18,4.06,4.18,2.62,4.72,0,.9.18,40.78-1.64,48q-22.79,0-31.21.81-3.79-27.22-3.8-37.46V151.21q0-3-.4-9t-.4-9a21.51,21.51,0,0,1,.4-3.37,21.42,21.42,0,0,0,.4-3.36C650.45,123.54,651.91,115.27,650.47,114.55Z" transform="translate(-57.14 -65.64)" fill="#fff"/><path d="M256.62,305.27l-1.52,1.08q-.25.81-.26,11.86,0,4.59-1.27,6.46l1.18,1.08a9.73,9.73,0,0,0-1.88,1.08,48.09,48.09,0,0,0,2.81,7.28c-.46.53-1.17,1.26-2.11,2.15l1.18.54q-.24,2.16-.71,6.47a1.67,1.67,0,0,0-.47,1.08l1.18,1.88a1.91,1.91,0,0,0-1.18,1.89,41.33,41.33,0,0,0,.59,5.93,40.65,40.65,0,0,1,.59,5.66,6.65,6.65,0,0,1-3.27-2.43,2.55,2.55,0,0,0-.7,2.43h-.47c-.93,0-1.78-.81-2.56-2.43l-1.16,1.62c-1.1-.41-3.47-.57-7.12-.51s-6-.3-7.11-1.11q-.93,0-.93.81h-6.3c-6.37,0-121.23-.27-125.43-.81l-.69.81q-1.65-.27-21-.27-11.2,0-13.76-1.89a3.82,3.82,0,0,1-3,1.35q-3.51-53.08-3.5-88.93c0-9.87.51-108.26.51-129.46,0-1.08-1.5-18.51-1-28,.06-1.07,1.43-3.65.49-4.55a9.14,9.14,0,0,1,1.41-1.89l38.35-38.8,147.24,1.61a25.87,25.87,0,0,1,7.44.81v6.2c-.16,2.52-.24,4.49-.24,5.93q0,28,2.82,31.26c-.28,2.15-.91,5.3-1.88,9.43a6.63,6.63,0,0,1,.7,3.5,27.27,27.27,0,0,1-.35,3.78,28.67,28.67,0,0,0-.35,3.77,4.92,4.92,0,0,0,1.88,4.31q-.88,3.78-1.18,14.55a17.77,17.77,0,0,1,1.18,7l-1.88,1.88,2.81,6.2-.93,1.35V273.74a3.47,3.47,0,0,1-.74.95c-.29.27-.44.49-.44.67a4,4,0,0,0,.59,1.62,4,4,0,0,1,.59,1.62v1.34a4.26,4.26,0,0,0,.93,2.16,61.94,61.94,0,0,0-.55,10.51,73.2,73.2,0,0,1-.38,10.24A6.88,6.88,0,0,0,256.62,305.27Zm-31.23-.76a3,3,0,0,0-.94-2.42q.23-4.57-.2-12.91c-.14-.36-.42-1.07-.83-2.15a7.92,7.92,0,0,1-.61-2.69c0-7.17.19-108.19.59-119.67q.28-22.86.58-28.24a6.58,6.58,0,0,1-2.81-.81l1.64-3v-16.4A137.32,137.32,0,0,1,224,96.9H210.45c-8.86,0-99.61-.36-107.21-1.08,0,1.62-21.38,21-22,22.74.62.18,1.58,2.88,1.58,4l-1.18,2.42q1,4.05,1.18,15.63v10.76Q83,160,84.46,161.84A5.26,5.26,0,0,1,82.82,164l3,2.42a19.91,19.91,0,0,1-4,3.77c0,2.16.42,97.09,1.29,101.4a55.51,55.51,0,0,1,1.29,9.7,24.16,24.16,0,0,1-1.64,8.62,10.15,10.15,0,0,0,2.34,3.23,4.25,4.25,0,0,0-.24,1.62v1.62a8.86,8.86,0,0,1,.24,1.89,3.21,3.21,0,0,1-2.34,1.34q.87,1.62,2.34,4.85a3.52,3.52,0,0,1-2.34,1.35,9.91,9.91,0,0,1,2.34,6.74,47,47,0,0,1-.59,6.2,46,46,0,0,0-.58,5.92,10.18,10.18,0,0,0,.7,4.05c13.75-1.08,129.6-1.62,139.76-1.62q.23-3.77.23-7.53a47.26,47.26,0,0,0-.7-9.41Q225.39,308.81,225.39,304.51Z" transform="translate(-57.14 -65.64)" fill="#fff"/><path d="M482.44,312.29q-2.47,7-2.47,39.07a1.23,1.23,0,0,1-.93,1.35q-.93.27-1.08,0c-.11-.17-.15,2-.15,6.47,0,2.52.72,3.95,2.16,4.31H440.68a56.57,56.57,0,0,0-4-12.13,10.92,10.92,0,0,1,.77-3.23,6.84,6.84,0,0,0,.16-4.31,37.44,37.44,0,0,0,.62-7q0-16.44-2.17-38.27a3.35,3.35,0,0,0-2.78-.54v-.81a7.65,7.65,0,0,0-.93-4.31q-.93.27,4.33,1.89v-25.6q0-13.2-1.55-16.17a11.89,11.89,0,0,0,1.55-5.39V133.15q0-3.77,1.24-5.12c-.83-.71-1.24-1.34-1.24-1.89V124a5.87,5.87,0,0,0-2.47-4.85,7.76,7.76,0,0,0,3.71-.54,5,5,0,0,0-1.24-3,27.14,27.14,0,0,1,1.24-5.12,104.36,104.36,0,0,1-1.24-15.9,86.21,86.21,0,0,1,3.12-24q26.15,0,35.8-.8Q480,97,480,107.28V282.11q0,3,.46,9t.47,9a18.93,18.93,0,0,1-.47,3.36,19,19,0,0,0-.46,3.37Q480,311.22,482.44,312.29Z" transform="translate(-57.14 -65.64)" fill="#fff"/><path d="M632.55,360.26c-1.92.71-7,1.08-15.2,1.08q-18.63,0-21.49-1.62-6.89,1.62-20.93,1.62c-7.45,0-29-.23-34.55-.7a32.44,32.44,0,0,1-5.45-.86,31.28,31.28,0,0,0-6-.87c-1,0-2,.81-3.16,2.43q-4.29-.82-20.92-.82a344.71,344.71,0,0,1-2.29-40.85c0-1.8-.15-4.46-.43-8s-.43-6.08-.43-7.7q0-12.18-.86-36.13c-.58-16-.86-120.84-.86-129a18.93,18.93,0,0,0-.43-3.24,18.15,18.15,0,0,1-.43-3.25q0-5.68-.29-17.18c-.19-7.67-.29-13.48-.29-17.46q0-23.81,1.72-28.14,6,1.09,34.68,1.08c8.22,0,35.61.09,52,.27s28.76.27,37,.27a5.22,5.22,0,0,0,2,2.43,68.33,68.33,0,0,0-1.14,12.39,36,36,0,0,0,.28,5.12q1.44,7.54,1.44,5.39a9.28,9.28,0,0,1-.72,3,8.92,8.92,0,0,0-.72,3,6.39,6.39,0,0,0,.86,3,.77.77,0,0,0-.28.54,3,3,0,0,0,.43,1.35l.71,1.35,2.3,27.48H595.86V103.31l-2.58-1.62H530.06a11.09,11.09,0,0,1-2.29,4.58l2.87,1.35V272.41a2.29,2.29,0,0,0,1.72,1.62,23,23,0,0,0-1.72,5.39,4.41,4.41,0,0,1,1.72,3,109.08,109.08,0,0,1-1.72,17.52l2.86,1.61c-1.91,3.6-2.86,6.29-2.86,8.09,0,.9.57,1.61,1.72,2.15v4.85q0,3,1.14,3.78a6.25,6.25,0,0,1-1.14,2.69c.45,1.8.71,2.88.77,3.23a10.09,10.09,0,0,1,.08,1.35,3.47,3.47,0,0,1-.85,2.16l66.65-3q-.57.29-.57.54,0,.54,1.29.54a3.32,3.32,0,0,0,1.29-.27v-9.16q0-8.62-1.44-22.91c-1.14-11.31-1.81-88-2-92l-.86.27a19.89,19.89,0,0,0-5.45-.54l-26.66.81-2.29-29.64,2.87.81h4q4.31,0,12.61-.41t12.61-.4h15.77q8.59,0,15.19-.54a1.17,1.17,0,0,1,1.15-.54c-.58,0,.57.18,3.44.54v35.84c.14,1.61.43,4.13.86,7.54.57,6.11.85,82.91.85,92.25v31.53A186.73,186.73,0,0,0,632.55,360.26Z" transform="translate(-57.14 -65.64)" fill="#fff"/><path d="M819.74,266.76a3.45,3.45,0,0,1-2.15,3.24,29.68,29.68,0,0,0,.54,4.46,31.26,31.26,0,0,1,.53,4.73V280a3,3,0,0,0,1.08,1.89,19,19,0,0,1-1.08,4.05v9.73a9.72,9.72,0,0,0,1.08,4.86c0,.9-.72,1.8-2.15,2.7a4.43,4.43,0,0,0,2.15,2.16,6.22,6.22,0,0,0-3,1.62,6.65,6.65,0,0,0,3,.55,9.33,9.33,0,0,0-3,6.75c0,1.63.63,2.53,1.88,2.7a2.58,2.58,0,0,0-1.88.81v3a19.48,19.48,0,0,1,3,1.08c-1.28,0-2,.72-2.18,2.16q-3.84,20.54-2.46,36.75H783.93a5.39,5.39,0,0,0-1.64-3.23c.17-.55.44-1.35.81-2.43-.54,0-1.27-.81-2.16-2.43-1.44-5.39-1-8.68-3.11-11.91-3.42-5.39-5.43-18.34-13-38.1C755.69,279,740,210.33,735.67,196.5q0,1.89-.27,5.79t-.27,5.79q0,7.28,2.16,11a16.69,16.69,0,0,1-.68,3.64,16.7,16.7,0,0,0-.67,3.91,2.2,2.2,0,0,0,.54,1.62,51.19,51.19,0,0,0,.81,7.41,50.7,50.7,0,0,1,.8,7.41v2.15a26.62,26.62,0,0,0-.8,4.85c0,.54.1.81.32.81a.91.91,0,0,0,.48-.27l1.12,106.91a30.57,30.57,0,0,1-10.06,1.34q-4.77,0-5.56-1.34a2.26,2.26,0,0,0-1.33.67,2.33,2.33,0,0,1-1.32.67,49.94,49.94,0,0,1-9.79-.81q-4.59-114.3-4.59-127.81c0-25.22,1.08-140.46,3.24-160.46a56,56,0,0,0,12.93,1.34,44.32,44.32,0,0,0,12.13-1.34,24,24,0,0,1,.27,4.83c.71.54,1.7,1.26,3,2.15l3.25,18.35c.72,1.61,2.71,16,3.79,16.76l-.54,1.08q1.06,2.15,3,6.44l-.81.54c.72,1.61,14.42,71.21,15.68,72.46.36,1.08,3.06,10.19,3.25,12.16,3.59,7.35,4.73,29.14,7.24,33.25h-.53a1.79,1.79,0,0,0-1.62.81,8.45,8.45,0,0,1,3,2.43c1.46,4.13,2.16,14.61,5.46,22.7q.81,6.19,1.64,9.7a19.07,19.07,0,0,0,4.11,8.62L779.86,76.32a59.16,59.16,0,0,0,2.43-6.49h28.29c1.08,13.69,2.16,117.59,3.24,126.41v5.95a40.45,40.45,0,0,0,1,7.56,2.77,2.77,0,0,0,2,1.08,3.59,3.59,0,0,0-2.16.81c.48.72,1.2,1.89,2.16,3.52v10.27q0,2.7-1.35,3.51a14.82,14.82,0,0,0,.68,3.78,15.65,15.65,0,0,1,.67,3.78,3.16,3.16,0,0,1-1.35,3l3.23,3.25a4.88,4.88,0,0,0-1.88,3.78q0,3,3,5.67c-1.73,0-2.72.37-3,1.08,1.25.91,1.88,1.53,1.88,1.9v4.32a18.48,18.48,0,0,0,.54,3.51A18.81,18.81,0,0,1,819.74,266.76Z" transform="translate(-57.14 -65.64)" fill="#fff"/><path d="M1017.56,133.73a3,3,0,0,0-2.07.81,74.66,74.66,0,0,0,1.38,8.56q-1.38,6.42-1.38,23.56a27.57,27.57,0,0,0,.23,3.08c.15,1.34.23,95,.23,95.67v3.48q0,3.21.46,9.64t.46,9.63v21.69q0,31.31-1.38,50.85c-6.62-.71-16.71-1.06-20.1-1.06a32.46,32.46,0,0,0-9.24,1.06l-1.38-218.21a1.21,1.21,0,0,0,.23-.8,3.34,3.34,0,0,0-.92-2.15l1.38-2.4a40.72,40.72,0,0,0-2.08-5.63,2.55,2.55,0,0,0,2.08-1.34,4.71,4.71,0,0,1-2.08-4.28,10.16,10.16,0,0,1,.7-3.48,39.87,39.87,0,0,0-1.16-8.56q-2.07.27-5.19,2.94t-5,2.94a2.36,2.36,0,0,0-1.15-.26c-1.7,0-3.85,1.07-6.47,3.21V92.78q4.85-6.16,15-17.4c.15-1.07.38-2.68.69-4.82a48.17,48.17,0,0,1,12.47-1.34A189.88,189.88,0,0,1,1015,70.56L1016,111c.61.36.92,1.7.92,4a4.46,4.46,0,0,0-2.07,4,12.26,12.26,0,0,0,.57,3.08,12.45,12.45,0,0,1,.58,3.08,2.74,2.74,0,0,1-1.15,2.4A43.93,43.93,0,0,0,1017.56,133.73Z" transform="translate(-57.14 -65.64)" fill="#acbbbe"/><path d="M955.77,308.3q.26,27.12-3.4,33.91l-9.9,17.08H850.14q-5.75-6-16.17-18.17-.26-1.08-2.35-25.23-1.3-14.91-1.3-24.95,0-9.76,1.3-14.92c1.57,0,25.47.27,28.94-1.36q-.25,4.62-.25,9.49,0,7.07.65,21t.65,20.75q2.1,2.18,11.56,2.17c8.22,0,44.82-.81,52.35-2.44a11.25,11.25,0,0,1,.26-1.9,12.56,12.56,0,0,0,.26-2.17q0-1.35-2.87-3.26V179.6L919,175.25H864a11.45,11.45,0,0,1-3.64,0,11.84,11.84,0,0,1-6,1.36,52.58,52.58,0,0,1-9.91-1.36,53.33,53.33,0,0,0-9.91-1.35,8.91,8.91,0,0,0-5,1.35L824.85,73.82h.52a7.27,7.27,0,0,1,1.82,1,5.38,5.38,0,0,0,2.35,1q2.87-3.25,3.39-3.26h7a18.14,18.14,0,0,0,6-1.35h2.09a21,21,0,0,1,7.82,1.35,10.48,10.48,0,0,1,5.74-1.35,31.35,31.35,0,0,1,7.3,1.35h35.75a9,9,0,0,1,5,1.36q6-2.47,15.9-3.18,8.09,0,16.43-.35c.52,0,1.47,0,2.86-.14s2.44-.13,3.13-.13c1.39,0,2.87.91,4.43,2.71q0,4.89-1.82,7.06-.25,8.13.52,24.68A129.71,129.71,0,0,0,926.3,102q-6.78,0-20.2,1c-9,.64-44.41,1-48.92,1-1,1.08-1.57,3.08-1.57,6,0,3.25.61,32.35,1.83,37.41a9.41,9.41,0,0,0,4.95,1.9A4.06,4.06,0,0,0,866,147c1,.55,33,.82,38.36.82q26.6,0,37-3v4.61L955,160.88a17.9,17.9,0,0,0-1.56,7.32,23.08,23.08,0,0,0,.78,4.88A23.15,23.15,0,0,1,955,178a11.89,11.89,0,0,1-.52,3v2.71a11.41,11.41,0,0,0,.52,3.53q-.6,1.91-3.65,4.61c.69.54,1.91.73,3.65.54v98.87q0,4.07-2.61,5.69a4,4,0,0,0,2.61.82,4.37,4.37,0,0,0-2.61,1.35l3.4,1.9Z" transform="translate(-57.14 -65.64)" fill="#acbbbe"/><polygon points="785.44 112.02 793.07 113.41 788.52 115.56 778.48 115.82 773.58 112.01 777.16 111.79 785.44 112.02" fill="#acbbbe"/><polygon points="898.14 102.23 902.8 109.7 901.73 94.77 898.14 102.23" fill="#acbbbe"/><path d="M1018.72,118.27l.54,4.2,1.88,6s4-13.07,3-15c-.63-1.14-3.67,4.07-3.67,4.07C1020.19,117.75,1019.52,117,1018.72,118.27Z" transform="translate(-57.14 -65.64)" fill="#acbbbe"/><g id="a270d74e-59f1-4980-baa4-9ebefa7a5f8f" data-name="pOcSOW.tif"><path d="M345.33,89.79a46.58,46.58,0,0,1,13.95,1.6,5.32,5.32,0,0,1,2.77,1.84c.42.42,2.29.28,2.82.5a44.2,44.2,0,0,1,8,3.81c2.22.52,5.63,3.46,7.26,4.87a48.58,48.58,0,0,1,12.69,16.07,71.63,71.63,0,0,1,3.78,6.79c.72,1,1.14,6.06,1.14,7.26,0,1.79-.9,2.19,0,3.86a22.89,22.89,0,0,1-.29,4.59,12.58,12.58,0,0,0-1.31,4.17,20.14,20.14,0,0,0-.51,3c-.19,2.66-1.92,8-2.86,7.63a5.28,5.28,0,0,0-1.29,3.16c-.22,2.37-25.07,33.29-27,34.81-1.78,1.39-2.65,2.65-4.8,4.64s-4.65,4.28-6.85,6.21c-2.52,2.22-5.32,3.87-8.91,3.53a8.12,8.12,0,0,1-2.85-.65c-2.93-1.41-7.78-6.8-8.12-7-2.29-1.43-3.31-3.47-5.11-5.39-.2-.22-7.63-5.81-10.61-9.95-1.57-1.56-15.46-22-16.51-23-1.85-1.62-2.17-4-3.3-6.19-1-2-1.52-5.24-3-7-.81-.95.48-.67,0-2.34a30.68,30.68,0,0,1-1.89-9.83,81.2,81.2,0,0,1,1.34-9.89,35.48,35.48,0,0,1,2.78-8.25c7.48-15.52,20-24.48,36.73-27.82A47.74,47.74,0,0,1,345.33,89.79Z" transform="translate(-57.14 -65.64)"/></g><polygon points="244.58 102.08 250.49 112.55 245.84 109.56 244.58 102.08"/><polygon points="340.72 78.54 341.38 84.76 342.69 75.27 340.72 78.54"/><polygon points="303.59 23.85 305.74 25.9 310.3 25.71 303.59 23.85"/><path d="M345.55,187.83c-4.19,0-8.89-2.45-11.66-5.14a.57.57,0,0,0-.93.61c2.24,6.1,8.06,10.18,12.59,10.18s10.19-3.94,12.47-9.86a.65.65,0,0,0-1.06-.69C354.16,185.48,349.61,187.83,345.55,187.83Z" transform="translate(-57.14 -65.64)" fill="#fff"/><path d="M361.52,168.42c6.74-.09,11.11-3.5,15.12-7.52a23.18,23.18,0,0,0,2.69-3.75,14.7,14.7,0,0,0,2.05-3.51,50.08,50.08,0,0,0,1.15-5.88c.16-.88.27-1.77.44-2.65a4.34,4.34,0,0,0-1.07-4,13.43,13.43,0,0,1-1-1.59,52.62,52.62,0,0,0-3.61-5.1,7.84,7.84,0,0,0-5.35-2.47,16.62,16.62,0,0,0-10.53,2.48,24,24,0,0,0-10.73,14.9,44.94,44.94,0,0,0-1.12,5,8.91,8.91,0,0,0,.13,3.13,21.56,21.56,0,0,0,1.19,3.35,10.31,10.31,0,0,0,1.16,2.54A13,13,0,0,0,361.52,168.42ZM307,145.67c.26,1.77.44,3.56.8,5.31.45,2.15,1,4.28,1.61,6.41a2.49,2.49,0,0,0,.64,1.08c1.51,1.52,3.05,3,4.6,4.51a19.74,19.74,0,0,0,7.21,4.54c3.95,1.36,7.79,1.28,11.42-1,1-.62,2-1.2,3-1.76a4.9,4.9,0,0,0,2.16-3,15.59,15.59,0,0,0,.52-6.18,40.08,40.08,0,0,0-.6-6.22c-2.82-11.82-14.28-20.14-23.61-16.7-1.37.51-3,.33-4,1.71A18.32,18.32,0,0,0,307,145.67Z" transform="translate(-57.14 -65.64)" fill="#fff"/><path d="M361.52,168.42a13,13,0,0,1-9.49-5.14,10.31,10.31,0,0,1-1.16-2.54,21.56,21.56,0,0,1-1.19-3.35,8.91,8.91,0,0,1-.13-3.13,44.94,44.94,0,0,1,1.12-5,24,24,0,0,1,10.73-14.9,16.62,16.62,0,0,1,10.53-2.48,7.84,7.84,0,0,1,5.35,2.47,52.62,52.62,0,0,1,3.61,5.1,13.43,13.43,0,0,0,1,1.59,4.34,4.34,0,0,1,1.07,4c-.17.88-.28,1.77-.44,2.65a50.08,50.08,0,0,1-1.15,5.88,14.7,14.7,0,0,1-2.05,3.51,23.18,23.18,0,0,1-2.69,3.75C372.63,164.92,368.26,168.33,361.52,168.42Z" transform="translate(-57.14 -65.64)" fill="#fff"/><path d="M307,145.67a18.32,18.32,0,0,1,3.7-11.37c1-1.38,2.63-1.2,4-1.71,9.33-3.44,20.79,4.88,23.61,16.7a40.08,40.08,0,0,1,.6,6.22,15.59,15.59,0,0,1-.52,6.18,4.9,4.9,0,0,1-2.16,3c-1,.56-2,1.14-3,1.76-3.63,2.32-7.47,2.4-11.42,1a19.74,19.74,0,0,1-7.21-4.54c-1.55-1.49-3.09-3-4.6-4.51a2.49,2.49,0,0,1-.64-1.08c-.57-2.13-1.16-4.26-1.61-6.41C307.44,149.23,307.26,147.44,307,145.67Z" transform="translate(-57.14 -65.64)" fill="#fff"/></svg>