<svg xmlns="http://www.w3.org/2000/svg" viewBox="0 0 864 1440"><title>Origin51_OutofthisWorld</title><g id="b3f120c0-1203-422c-8af6-9867c987483a" data-name="Layer 2"><rect width="864" height="1440"/></g><g id="f3859889-e85e-484c-8a73-7af6b57311f9" data-name="Layer 1"><polygon points="168.44 819.16 203.62 881.51 175.91 863.72 168.44 819.16" fill="#acbbbe"/><polygon points="740.87 679.01 744.77 716 752.55 659.55 740.87 679.01" fill="#acbbbe"/><polygon points="519.79 353.36 532.56 365.58 559.71 364.47 519.79 353.36" fill="#acbbbe"/><path d="M739.35,632.71c-5.11-9.93.29-12.29.24-23,0-7.1-2.51-37.28-6.83-43.21-6.09-13.28-13-24.61-22.46-40.44C690.94,487,667.83,459,634.75,430.42c-9.73-8.4-30.06-25.93-43.24-29-17.77-10.86-26.06-14-47.39-22.71-3.18-1.3-14.3-.46-16.79-3-5.65-5.69-9-9.05-16.48-10.93C483.56,358,456,353.7,427.74,355.28c-24.29-1.36-48.27,1.34-72,6.1C256.1,381.31,181.58,434.6,137,527.05a211.57,211.57,0,0,0-16.55,49.09c-4.12,19.91-8.3,54.06-8,58.9,2.18,34.89,6.7,43.56,11.25,58.51,3,10-4.6,8.29.23,13.93,8.87,10.37,11.79,29.76,17.88,41.6,6.75,13.12,8.66,27.17,19.65,36.87,6.29,5.55,89,127.44,98.3,136.72,17.77,24.68,62,57.94,63.18,59.24,10.71,11.45,16.8,23.61,30.44,32.08,2,1.27,30.86,33.39,48.31,41.76,5.34,2.56,11.08,3.31,17,3.88,21.36,2,38.06-7.83,53.07-21,13.08-11.49,27.44-24.67,40.75-37,12.83-11.84,18-19.4,28.63-27.64,11.65-9,159.57-193.13,160.89-207.25.63-6.75,3.15-14.36,7.68-18.85,5.62,2.25,15.9-29.55,17-45.39.5-7.07,1.68-10.59,3.06-17.66,3-15.44,1.77-10,7.8-24.8C738.43,658.08,740.32,634.61,739.35,632.71ZM288,818.07C271.64,812.42,257.55,803,245.1,791q-13.83-13.26-27.39-26.82a15.13,15.13,0,0,1-3.83-6.46c-3.39-12.66-6.87-25.33-9.54-38.15-2.17-10.42-3.23-21.06-4.79-31.59-.05-25.12,7-47.61,22-67.72,6.14-8.22,15.71-7.17,23.84-10.17,55.53-20.49,123.77,29,140.59,99.42,2.85,11.94,2.62,24.65,3.54,37s1,24.65-3.06,36.78c-2.52,7.57-5.71,14-12.89,18q-8.93,5-17.55,10.5C334.39,825.7,311.54,826.19,288,818.07Zm215.31,95.87c-13.59,35.23-46.78,58.72-74.23,58.72-27,0-61.62-24.34-75-60.61a3.4,3.4,0,0,1,5.55-3.64c16.52,16,44.51,30.57,69.44,30.57,24.19,0,51.27-14,67.94-29.16C500.06,907.05,504.79,910.11,503.31,913.94ZM651.87,684.66c-1,5.23-1.67,10.52-2.62,15.76-2.11,11.71-3.33,23.72-6.84,35-2.33,7.53-7.77,14.16-12.23,20.93-5,7.65-9.6,15.91-16,22.31-23.87,23.93-49.93,44.23-90,44.77-20.57-1.68-41.4-10.74-56.51-30.59-3.28-4.31-4.87-10-6.92-15.13-2.6-6.56-5.59-13.1-7.06-19.94a53.15,53.15,0,0,1-.8-18.64c1.48-10,4.08-19.8,6.66-29.57,9.95-37.7,30.43-68,63.89-88.7a99.3,99.3,0,0,1,62.71-14.78c12.15,1.13,23.79,5.48,31.88,14.74S632.47,641,639.5,651.18c2.12,3.08,3.51,6.76,6,9.44C652,667.61,653.63,675.58,651.87,684.66Z" transform="translate(0.34 -0.1)" fill="#acbbbe"/><path d="M690.35,548.31a1.9,1.9,0,0,0-1.34.14,44.17,44.17,0,0,0-.42,5.07q-1.74,3.43-4.2,13.16a16.76,16.76,0,0,0-.31,1.78,16.79,16.79,0,0,1-.3,1.78c-.36,1.42-5,19.93-5,19.83-.31,1.21-2.48,2.74-2.92,5.22s-.8,4.32-1.11,5.53l-3.12,12.31c-3,11.85-9.07,24-11.49,31.3-3.45-3.45-5.64-8.37-7.64-8.87-2.27-.58-4-7.58-5.42-7.52l22.67-79.67A.72.72,0,0,0,670,548a1.93,1.93,0,0,0-.24-1.36l1.17-1.16a25.18,25.18,0,0,0-.42-3.5,1.56,1.56,0,0,0,1.42-.45,2.7,2.7,0,0,1-.61-2.74,5.55,5.55,0,0,1,.91-1.87,22.51,22.51,0,0,0,.54-5,6.84,6.84,0,0,0-3.49.89,7.07,7.07,0,0,1-3.35.93,1.34,1.34,0,0,0-.64-.32c-1-.26-2.43,0-4.28.85l4.3-17c2.49-1.84,11.81-9.32,16.88-12.56l1.11-2.63c2,0,3.94,2.86,6.94,3.62s5,5.54,7.1,8.94l-4.65,20.56c.31.3.3,1.1,0,2.42a2.59,2.59,0,0,0-1.8,2,6.72,6.72,0,0,0-.1,1.83,7.15,7.15,0,0,1-.1,1.83,1.61,1.61,0,0,1-1,1.2A26.56,26.56,0,0,0,690.35,548.31Z" transform="translate(0.34 -0.1)"/><path d="M640.13,580.59a58.24,58.24,0,0,1-4.9,18.07l-8.87,13.25-7.88-4.68c-4.68-3.7-19.71-8.87-26.61-10.35-.08-.41,1.23-16.5,1.61-25,.25-5.7.3-10,.3-13.84a41.69,41.69,0,0,1,.66-8.53,92.41,92.41,0,0,1,13.82,2.79c-.09,1.75,0,5,0,6.83,0,2.69-1,4.84-.74,10.16s-1.85,13.19-1.85,15.77c.71.83,4,.74,7.14.74,4.17,0,10.33,2.45,9.37,1.73l16.14-64.45c1.25-1.4,3.53-5.17,1-5.52l-15-8.71c-.26,0-5.84-3.59-6.28-3.69-.79.51-2.83-.74-4.06-.74s-4.45-1.15-6.66-1.67-4.46-1.8-7.57-2.4l3.11-72.93h.26a3.63,3.63,0,0,1,.93.54,2.45,2.45,0,0,0,1.19.55c1-1.24,1.54-1.86,1.72-1.86h3.56c.8,0,10.87,8.53,12,9.05.71-.52,17.58,17.89,18.37,17.89,1,0,17.7,16,18.41,15.92s2.49,1,2.84,1c.71,0,1.46.52,2.25,1.55,0,1.86.32,6.05-.29,6.88a79.77,79.77,0,0,1-1.23,13.24c-4.44-1.85-6.65-4.43-11.09-7.21-1.94-1.21-3.46-7-5.36-5.54-1.66,1.29-28.68-27.1-28.88-24.82-.19,2-.56,6.66-.56,8.31,0,1.87-1.11,18.57-.49,21.47,1,.72,2.09,2.1,2.65,2.53,1.66,1.3,7.45,4.13,10.41,4.5,5.54,4.62,24,12.38,24,12.38l5.91,3.51c-.53,1.35-1.34,1-1.34,2.46a15,15,0,0,0,.39,2.79,14.36,14.36,0,0,1,.4,2.79,7.5,7.5,0,0,1-.27,1.71v1.55a7.31,7.31,0,0,0,.27,2,6.9,6.9,0,0,1-1.85,2.63,2.36,2.36,0,0,0,1.85.31l-15.28,44.49c0,1.55-2.46,8.87-2.46,8.87Z" transform="translate(0.34 -0.1)"/><path d="M502.59,433.39c.82-5.18.4-12.49,1.19-36.29,0-.8.16-1.3.42-1.49s.39-.19.43,0,.13-2.2.3-7.19c.09-2.8,1-6.95.47-7.37l13.33,1.53c.24,5.21,0,82.88,0,84.68l-.24,7.2-.49,14.7q-.48,14.7,0,18a32.53,32.53,0,0,0-.82,6l-.16,5-.27,8.25-.39,11.71a21.53,21.53,0,0,1-.68,5.68,5.63,5.63,0,0,1,.42,2.12c0,.6-2.41,1.66-1.8,3.08-.32-.21,1.71,4.72,1,5.3,0,1-1.42,45.4-2.51,53.38-7.69,3.28-12.37,9.44-14.83,12.15-.49-20.24-.07-45.89.18-53.48l3-92.11q.11-3.3.15-10.06t.14-10.05c0-.8.13-2,.31-3.75s.28-2.94.31-3.74C502.25,443.4,503.22,434.21,502.59,433.39Z" transform="translate(0.34 -0.1)" fill="#fff"/><path d="M247,522.43l4.77,17c0,.21.41,1.62,1.22,4.24.33,1.09,8.16,36.77,8,37.3l.48.27a2.72,2.72,0,0,0-.46.56,19,19,0,0,0,1.66,2.32,10.32,10.32,0,0,1-.41,1l.42.08.49,2.36a.65.65,0,0,0,0,.43l.57.56a.72.72,0,0,0-.15.78,16.56,16.56,0,0,0,.82,2.06,15.28,15.28,0,0,1,.8,1.95,2.16,2.16,0,0,1-1.27-.55,1.06,1.06,0,0,0,.05.93l-.14,0c-.29.09-.64-.11-1.05-.62l-.19.69a6.77,6.77,0,0,0-2.24.49,3.77,3.77,0,0,1-2.31.28.27.27,0,0,0-.2.38l-1.93.59c-2,.6-26.18,7-39.73,14.66L201.38,620c-.36,0-.37,0-4.34,1.23q-3.43,1.05-4.44.63c-.14.39-2,.64-2.43.76-4.59-12.37-11.78-65.85-14.39-74.35-1.08-3.51-6.21-24.64-8.53-32.18-.11-.38-.11-16.75-1-20.18-.1-.38,0-1.43-.35-1.66a4.1,4.1,0,0,1,.23-.81l27.6-41,20.86-17.79a6.91,6.91,0,0,1,2.38-.42l.68,2.21c.23.91.42,1.61.58,2.13,2,6.64,4.5,16.06,5.32,16.65.15.79.3,2,.45,3.53.22.21,2.75,5.77,2.92,6.35a12.37,12.37,0,0,1,.31,1.37,11,11,0,0,0,.3,1.38,2,2,0,0,0,1.05,1.35,37.65,37.65,0,0,0,1.23,5.29A7.55,7.55,0,0,1,231,477l-.37.85,10.86,27.74-.14.57.35,1.15.27.86,1,3.17,0,.09a1.39,1.39,0,0,1-.12.41.4.4,0,0,0-.06.28,1.61,1.61,0,0,0,.36.52,1.72,1.72,0,0,1,.35.52l.15.48a1.7,1.7,0,0,0,.52.67,26.25,26.25,0,0,0,1,3.79,33.82,33.82,0,0,1,1,3.68A2.57,2.57,0,0,0,247,522.43ZM236.22,544a1.23,1.23,0,0,0-.56-.77c-.28-1.1-5.89-19.08-6.59-21-.08-.11-.25-.34-.49-.69a3.16,3.16,0,0,1-.48-.89q-1.18-3.84-2.88-10c-1.61-5.44-11.9-34.61-12.23-35.9a2,2,0,0,1-1,0l.18-1.2c-.19-.64.12,2.43-.27,1.16l-.91-3c-.82-2.68.08-9.13-.27-11.12-1.25.43-3.2,2.38-6.09,2.93s-3.44,3.19-5.85,3.65c.18.58-20.6,30.62-20.6,31.32.21,0,.8.88.92,1.26l-.1,1c.5.9.3,1.59,1.18,4.32l1.18,3.83a10.22,10.22,0,0,0,1.65,3.58c0,.28,2.81,11.82,2.62,12.16l1.21.57a7.34,7.34,0,0,1-.82,1.72c.24.77-.16,11.3.57,12.75a22.09,22.09,0,0,1,1.46,3.33,10.11,10.11,0,0,1,.44,3.22,3.88,3.88,0,0,0,1.08.93,1.75,1.75,0,0,0,.1.6l.18.57a4.71,4.71,0,0,1,.28.65c-.15.4-.34.63-.58.7.3.33.72.83,1.25,1.5-.17.41-.36.64-.57.71.68.49,6.75,40.55,7,41.51.15.51.32,1.27.5,2.26a21.16,21.16,0,0,0,.46,2.17,4.48,4.48,0,0,0,.66,1.37c4.11-1.69,43.19-15.37,46.32-16.34q-.34-1.35-.75-2.7c-.46-1.46-7.73-33.23-8.11-34A3.35,3.35,0,0,0,236.22,544Z" transform="translate(0.34 -0.1)" fill="#fff"/><path d="M318.15,451.13a2.59,2.59,0,0,1-.54,1.16c-4,.94-3,2.63-3.32,2.72-.89.29-33.22,12.43-33.46,13,2.6,4.92,20.59,35,23,39.25q2.52,3.72,6.86,11.61a22.33,22.33,0,0,0,1.2,2c.62,1,22.76,60.88,28,71.57.21.44,6.25,26.07,7.39,28.58-1.33.44-8.13-6.4-10.6-8.62-1.12-1-7.13-7.14-8.62-6.65-1.63-2.36-4.68-16.47-7.88-21.19-1.46-2.19-21.57-52.39-27.84-63.69-.46-.64-21.41-37-22.18-38.43-.8-1.9-2.25-6.32-4.06-10-.63.14-7.19,1.57-8.5,2.22.28.85,3.91,11,4.06,11.45,3.24,8.54,18.06,79.58,18,79.44l.9,2.74.57,1.76.84,2.54.8,2.44c.19.59.5,1.43.92,2.52s.71,1.89.89,2.41c.7,2.15,6.44,12.32,7.49,17.39l-8.25-.74c-1.93.64-5.83-2.13-8-1-.79-.54-1.52-2-2.2-3.87.91,2.74.44,1.34-1.38-4.21a14.48,14.48,0,0,0-1.95-4.25,8.81,8.81,0,0,0-.59-3.5c-.3-.91-.84-2.25-1.6-4s-1.3-3.12-1.61-4a6.65,6.65,0,0,1-.37-2.27q-1-.43-1.14-.93c0-.13.06-.2.31-.2a15.23,15.23,0,0,0-.89-3,8.66,8.66,0,0,0-1.38-2.8c-.11-1.27-23.2-92.92-23.4-93.51s-.63-1.78-1.19-3.19-.93-2.41-1.12-3c-1.72-4.86-4.53-13.24-5.82-17.16L228,433.43l-.73-2.21-.75-2.3-.28-.83-.24-.74c-.23-.72-.16-1.14.23-1.27,3.55-1.16,23.62-16.15,29.81-20.14,11.46-7.39,38.26-19.18,41.76-20.32l.42,1.27a18.55,18.55,0,0,0,1,2.48c.2.44.65,1.23,1.33,2.38a14.41,14.41,0,0,1,1.35,2.7,5.39,5.39,0,0,1,.3,1.74Zm-20.69-6.76c5.91,1.85-2.73-20.87-8.13-37.32-.15-.46-.35-1.16-.61-2.13s-7.37,1.11-7.52.65L245.72,430c.17.52.1,4.75.57,5.64a15.21,15.21,0,0,1,1,2.12c.25.78,6.3,21.29,6.14,21.92Z" transform="translate(0.34 -0.1)" fill="#fff"/><path d="M363.24,543.79c3,19.08,11,76,11,89.67,0,.46-.09.75-.26.87s-.28.11-.31,0,0,1.27,0,4.15c0,1.61-.18,10.89.23,11.12L364,638.27c-3.45-3-8.54-9-8.6-11.48a15.5,15.5,0,0,1,.22-2.07,9.9,9.9,0,0,0,0-2.77c.11-1.38-13.47-81.35-13.47-83,0-7-6.06-31.82-6.06-32.85s-2.57-13.88-2.86-15.16a15.59,15.59,0,0,0,.44-3.45v-9.69c0-.57-5.39-15.07-5.2-16.46-.23-3.45-3.32-19.93-3.32-23.28,0-5.65-12.05-54.88-11.46-59.5,6.28-1.84,15.15-4.06,19.59-3.32.82,11.65,16.91,71.47,16.91,75.85l10.07,64.19c0,1.27,0,3.2.13,5.79s.13,4.53.13,5.8c0,.46-.05,1.18-.13,2.16s2.08,5.77,2.08,6.23C362.5,537.13,362.77,543.33,363.24,543.79Z" transform="translate(0.34 -0.1)" fill="#fff"/><path d="M460.56,671.28c-.59.29-1.42.14-3.95.14q-5.72,0-6.6-.64c-1.41.43-24.52-1-27.39-1-2.29,0-17.25-1.23-25.38-3.69-.29,0-1.64-.51-2.46-.74a14.45,14.45,0,0,0-2.47-.49c-.29,0-.63,1.32-1,2a25.56,25.56,0,0,0-7.15-1.23c-.47-5.09-.69-13.28-.69-19,0-.72,0-1.78-.13-3.17s-.13-2.42-.13-3.07q0-4.83-.26-14.34c-.18-6.34-28.35-223.61-28.35-226.84,0-.28-1.49-2.31-1.58-2.88a10.59,10.59,0,0,1-.13-1.29c0-1.5,0-3.78-.09-6.82s-.08-5.36-.08-6.93q0-9.45.52-11.18c10.35-2.21,16.88-4.55,26-4.31,10.72.29,65.66,2.64,70.7,2.71s41.58,9.86,44.1,9.86a2.17,2.17,0,0,0,.62,1c-.24,1.64.62,5.53.62,7.17,0,.85-2.4.11-2.34.61.29,2,.44,2.71.44,2.14a4.7,4.7,0,0,1-.22,1.17,4.4,4.4,0,0,0-.22,1.18,3,3,0,0,0,.26,1.18.32.32,0,0,0-.09.21,1.66,1.66,0,0,0,.13.54,14.18,14.18,0,0,1,.59,2.38L487,458.05l-18.6-.62,3.94-47.05-2.95-19.47-56.91-4.43c-2.77-.73-38.52-.47-38.93.24l-1,4.24,29.93,229.2a.81.81,0,0,0,.53.64,10.76,10.76,0,0,0-.53,2.14,2,2,0,0,1,.53,1.18,55.68,55.68,0,0,1-.53,7l.88.64a9.47,9.47,0,0,0-.88,3.21,1,1,0,0,0,.53.86v1.93c0,.78.11,1.28.35,1.49a2.93,2.93,0,0,1-.35,1.07q.21,1.08.24,1.29c0,.14,0,.32,0,.53s1.64,1.07,1.05,5.79l39.78,2.71c.3-4.37.24-8.06.37-8.13,0-1.14,3.7-2.41,3.7-3.7,0-2.28,1.4-.65,1.11-4.43-.35-4.5,10.59-31.42,13.18-59.63l4.29-36c-.35-.14-6.73-2.33-7.49-2.33L419.67,531,419,517.72l.88.32h1.23c.88,0,22.92.61,30.3,1,1.7.08,15,3.44,15.86,3.44h4.84c1.76,0,1,1.41,2.37,1.27.06-.14,7.55,1.94,7.73,1.94-.18,0,4.93,2.21,7.88,3.32l-4,39.51c-.45,2.12-4.3,33.17-4.17,34.53.18,2.42-15.64,38.66-15.64,42.37,0,1.36-.86,6.55-.86,9.36s-2.71,7.52-2.71,8.87C462.78,666.5,460.38,669.07,460.56,671.28Z" transform="translate(0.34 -0.1)" fill="#fff"/><path d="M590.23,513a1.92,1.92,0,0,1-.78,1.67,22,22,0,0,0,.2,2.3,24.33,24.33,0,0,1,.19,2.44v.42a1.77,1.77,0,0,0,.39,1,14.65,14.65,0,0,1-.39,2.09v3.07a24.36,24.36,0,0,0,.39,4.46,1.93,1.93,0,0,1-.78,1.39,2.17,2.17,0,0,0,.78,1.11c-.36.1-.45,1.12,0,1.12-.71,1-2,12.93-3,9.24-.91,7.06-6,47.58-5.66,53.16l-13.26-.29a18.33,18.33,0,0,0-1-4.15c.06-.28-.63-2.89-.5-3.45-.19,0-.41-2.37-.74-3.2-.51-2.78-3.41-9.42-4.18-11.09-1.23-2.78-3.71-26.76-6.41-37-3.28-12.23-9.54-60.13-11.09-67.26,0,.65-1.64,8.18-1.7,9.52s.16,7.39.68,8.68a12.19,12.19,0,0,1-.24,1.88,11.42,11.42,0,0,0-.25,2,1.46,1.46,0,0,0,.2.84c0,.83-4.35,107.4-4.35,107.4-.89.46-4.28,1.77-6.9,3.2-1,.55-3.45,1.72-4.36.25-.13,0-.29.11-.48.34s-.34.35-.47.35c-1.39,0,.1-.42-.85-.69-1.1-39.3,4.68-111.89,4.68-116.54,0-13-5.21-92.67-4.43-103a23.46,23.46,0,0,0,5.91.49c1.8,0,2.6,2.44,3.69,2a16.27,16.27,0,0,1,.1,2.5c.26.28.61.64,1.06,1.1l20.74,72.39a4.07,4.07,0,0,0,1,1.8l-.19.56c.26.74.61,1.85,1.06,3.32l-.29.28a8.14,8.14,0,0,0,1.06,2.22,14.43,14.43,0,0,1,.29,2.35q1.93,5.68,3.28,8.86h-.19a.62.62,0,0,0-.58.42,3.5,3.5,0,0,1,1.08,1.25q.78,3.19,2.55,9.45c.2,2.13.39,3.8.59,5,.33,1.95,6.51,19.54,7.16,20.56l-2.46-77.61c.19-.56-2.36-37.74-2-39.42l15.77,7.89c.38,7.06,3.8,61,4.19,65.53,0,.1-1.56,1.69-1.56,2v2.51a29.31,29.31,0,0,0,.36,3.9c.23.37.47.56.7.56a1.09,1.09,0,0,0-.77.42c.17.37.43,1,.77,1.81v5.29a2.42,2.42,0,0,1-.48,1.81,11,11,0,0,0,.24,1.95,11.21,11.21,0,0,1,.24,1.95,2,2,0,0,1-.48,1.54l1.16,1.67a3,3,0,0,0-.68,1.95,4.77,4.77,0,0,0,1.07,2.93c-.63,0-1,.18-1.07.55.45.47.68.79.68,1v2.23A13.24,13.24,0,0,0,590,511,13.71,13.71,0,0,1,590.23,513Z" transform="translate(0.34 -0.1)" fill="#fff"/><path d="M155.46,422.7l-1.13.69a69.3,69.3,0,0,0-.19,7.64,6.93,6.93,0,0,1-.94,4.16l.87.7a7,7,0,0,0-1.39.69,28,28,0,0,0,2.08,4.68,18.93,18.93,0,0,1-1.56,1.39l.87.35c-.11.93-.29,2.31-.52,4.16a1,1,0,0,0-.35.7l.87,1.21a1.23,1.23,0,0,0-.87,1.22,23.16,23.16,0,0,0,.44,3.81,22.66,22.66,0,0,1,.43,3.65c-.69-.12-37,48.16-37,48.16l-.52.52c-.81-.12-15.53-.17-15.53-.17l-12.43-.35S86,146.56,86,131.17v-30a16.46,16.46,0,0,1,.53-3.3A17.15,17.15,0,0,0,87,94.39a4.75,4.75,0,0,0-1-3.47,14,14,0,0,1,.6-1.56A4.52,4.52,0,0,0,87,87.8a2.47,2.47,0,0,0-1-1.91c.12-.23-.35-3.84-.25-7.32l15.16-18.88,45.78.29a21.66,21.66,0,0,1,5.5.52v4c-.11,1.62-.17,2.9-.17,3.82q0,18,2.08,20.13a59.54,59.54,0,0,1-1.39,6.07,3.77,3.77,0,0,1,.52,2.25,15,15,0,0,1-.26,2.43,16.25,16.25,0,0,0-.26,2.43,3,3,0,0,0,1.39,2.78,50.13,50.13,0,0,0-.87,9.37,10.06,10.06,0,0,1,.87,4.51l-1.39,1.21,2.08,4-.69.87v9.54a2.26,2.26,0,0,1-.54.61c-.22.17-.33.32-.33.43a2.28,2.28,0,0,0,.44,1,2.34,2.34,0,0,1,.43,1.05v.86a2.55,2.55,0,0,0,.69,1.39,35,35,0,0,0-.4,6.77,41.19,41.19,0,0,1-.29,6.59C154.28,153.09,154.74,422.12,155.46,422.7Zm-18.91-.49c0-.7-.24-269.72-.7-270.07a72.57,72.57,0,0,0-.15-8.31c-.1-.23-.3-.69-.61-1.38a4.6,4.6,0,0,1-.45-1.74q0-6.92.43-18,.23-14.73.44-18.19a5.43,5.43,0,0,1-2.09-.52l1.22-1.9V91.53a76.71,76.71,0,0,1,.87-12.46l-24.26.05-6.71,9v26.72c.11,3.71.52,6,1.21,6.77a3.35,3.35,0,0,1-1.21,1.39l2.26,1.56a14.89,14.89,0,0,1-3,2.43,30.57,30.57,0,0,0,1,6.24,31.29,31.29,0,0,1,1,6.25,13.73,13.73,0,0,1-1.21,5.55,6.88,6.88,0,0,0,1.73,2.08,2.57,2.57,0,0,0-.17,1.05v1a5.3,5.3,0,0,1,.17,1.21,2.49,2.49,0,0,1-1.73.87c.43.69,1,270.24,1.73,271.63a2.75,2.75,0,0,1-1.73.87,5.89,5.89,0,0,1,1.73,4.33,25.9,25.9,0,0,1-.43,4c-.29,1.74-.43,47.65-.43,47.65l5.57-.42,24.87-32.8s.18-13,.18-14.65a27.08,27.08,0,0,0-.52-6.06C136.2,425.27,136.55,424.06,136.55,422.21Z" transform="translate(0.34 -0.1)" fill="#fff" opacity="0.2"/><path d="M233.55,123.43l-1.39.87V128L233,348.88l-.87,11.8.87.7-1.39.69c.58,6.25.53,11.17.88,19L199,404.25,172.76,430.8l-7,.35-1.73-287q-.87-21.94-.87-21.77V85.78l.87-1.21-1.39-24.88,18.56,1.56,1.91,60.38L181.57,123l2.43,1.56L181.05,127l2.08,260.48,31.33-25.25c-.07-2.43-.19-6.07-.34-10.93L213.6,60.45l11.8-.52,5.37.52,1.39,53.27c.23,1.16.52,2.66.87,4.51l-1.39,1.21Z" transform="translate(0.34 -0.1)" fill="#fff" opacity="0.2"/><path d="M310,79.29a19.9,19.9,0,0,1-2.27,2.26A99.85,99.85,0,0,0,293,80.16a41.51,41.51,0,0,0-6.65.52q.52,34,.52,31.23a3.58,3.58,0,0,1-.25,1.22,3.42,3.42,0,0,0-.27,1.21,36.25,36.25,0,0,0,.27,3.65c.17,1.62.25,2.83.25,3.64v13.19q0,4.34.33,13.09c.22,5.85.33,173.73.33,176.62a1.67,1.67,0,0,1,.21.87,4,4,0,0,1-.87,2.26c.57,1.15.78,3.21.64,6.16s.28,5.11,1.27,6.5c-.81.23-1.15.87-1,1.91a9.22,9.22,0,0,0-.87,4.16,12.55,12.55,0,0,0,.87,4.86c-.46.35-1.16.93-2.08,1.74l-16.83,9.28a8.59,8.59,0,0,0-1-1.56L266.24,81.55H238.65a65.22,65.22,0,0,0,.7-8.15c0-4.51.05-7.29.17-8.33a3.65,3.65,0,0,1,0-3.12c-.35-.58-.87-1.57-1.56-3,0-.7,13,.22,13.44-.25,1.15,0,22.82-.27,24.56-.27a1,1,0,0,0,.86.52,1.59,1.59,0,0,0,.78-.26,1.41,1.41,0,0,1,.61-.26,9.27,9.27,0,0,1,1.91.26A9.93,9.93,0,0,0,282,59h5.9a10.45,10.45,0,0,1,4.16.69A3.59,3.59,0,0,1,294,58.48a11.65,11.65,0,0,1,4.68,1.21q3.12,0,9.55-.69a35.22,35.22,0,0,1,.86,8.84V70.1A37.74,37.74,0,0,0,310,79.29Z" transform="translate(0.34 -0.1)" fill="#fff" opacity="0.2"/><path d="M400.94,329.09l-66.28,11-2.6-123.88-.52-2.25q.52-1.39.52-11.11c0-1,.12-111.22.35-115a54.76,54.76,0,0,0,.17-7.29l.87-2.08V71.79l11.44-12.06s4,1,19.61,1h34.36l1.39,49.9.69,25c0,12-.06,168.62-.17,175.67q0,2.07-.35,7.45c-.12,3.11-.17,5.6-.17,7.45Zm-16.69-14-1-178.17-.69-16.14V76.17L381,74.09H359.52l-8.24,8.6L352.71,104l.52,4.34-.7,1.56.7,2.43-1,1.56,1,.52c.11,13.65.11,182,0,205Z" transform="translate(0.34 -0.1)" fill="#fff" opacity="0.2"/><path d="M480.31,81.24l-52,1.4v75.85l17.35,1.74,11.63-.52s1,17.93,1,19.43a9.78,9.78,0,0,1-1,4.34h-29c-.15,2.77-.52-2.34-1.11,4.26-.3,4-.45,119.82-.45,119.7,0-.81.14,1.25.43,6.16s.44,9.28.44,13.1a17.35,17.35,0,0,1-.18,3.08H427a23.64,23.64,0,0,0-3.94.53,24.28,24.28,0,0,1-3.94.51,44.92,44.92,0,0,1-4.65-.34,42.49,42.49,0,0,0-4.64-.35c-.46-6.25-.7-8.36-.7-16.13V135.31q0-44,1.57-74.54h69.65Z" transform="translate(0.34 -0.1)" fill="#fff" opacity="0.2"/><path d="M584.3,81.67c-.48.58-2.35,2.25-2.35,2.25l-22.06-.87s.54,191.46.54,189.61a3.43,3.43,0,0,1-.27,1.22,3.38,3.38,0,0,0-.27,1.21,35.9,35.9,0,0,0,.27,3.64,36.45,36.45,0,0,1,.27,3.65v13.18q0,4.35.34,13.1t.33,13.1a1.59,1.59,0,0,1,.23.87,3.9,3.9,0,0,1-.9,2.26c.58,1.15.8,3.21.66,6.16s.29,5.11,1.31,6.5c-.84.24-1.19.87-1.07,1.91a9,9,0,0,0-.9,4.16c0,1.85.3,8.37.9,9.76-.48.35-1.2.92-2.16,1.73l-19.49-4.89a8.92,8.92,0,0,0-1.07-1.56L537,83.92l-25.51-.7c.36-2.08-.53-11.17-.53-11.17s1.64-11.23,2.13-11.7c1.19,0,24.07.93,27.78.75s20,.27,20.65.27a34.72,34.72,0,0,0,6.28-.53,12.56,12.56,0,0,1,4.85,1.22q3.23,0,9.87-.69a33.57,33.57,0,0,1,.9,8.84v2.26A37.23,37.23,0,0,0,584.3,81.67Z" transform="translate(0.34 -0.1)" fill="#fff" opacity="0.2"/><path d="M664.13,419.63l-20-20.75s-2.19-193.46-4-215.67H618.66l-2.16,1.56,2.34,200.55-9-2.39s-12.17-13.57-13.48-13.57L593,181.48q-1.61-27.42-1.61-28.63V60.62h22.44l3.41,99.69h24.94a9.71,9.71,0,0,0,1.63-5.55,27.57,27.57,0,0,0-1.08-6.25c-.72-2.77-1.08-51.39-1.08-52.78q0-3.12.19-9.45t.17-9.46a103.41,103.41,0,0,0-1.07-16.14,44.91,44.91,0,0,0,5.92.35q3,0,16-1.21a11.16,11.16,0,0,1,1.08,4.51,7.07,7.07,0,0,1-.36,2.25c2.75,26.14,4.13,103.33,4.13,138.49C667.67,215.25,664.13,419.63,664.13,419.63Z" transform="translate(0.34 -0.1)" fill="#fff" opacity="0.2"/><path d="M700.94,63.45q-.72,10.76-.72,26.37v58.12c0,17.82-1.08,304.82-1.08,304.82L677.6,426V66.92q0-1.22-1.62-1.74,3.42-1.73,19.93-1.73Z" transform="translate(0.34 -0.1)" fill="#fff" opacity="0.2"/><path d="M782.2,219.65V506.59H752.68c-.72-1.16-41.39-43.76-41.39-44.57,0-.46.15-22.38.45-23.25s.45-17.08.45-17.55V345.43a4.21,4.21,0,0,1,2.33-.69,10.16,10.16,0,0,1,2.16.34,9.54,9.54,0,0,0,2.15.35h12V449.92l21,21.54,11.47.8s-1.08-244.92-1.08-249.89c0,.12-.28-6.18-.28-6.18l-20.74-33S712.47,143.16,712,143.85c0,0-1.66-53.91-1.78-55.42V79.24q.18-7.29.18-9.2c0-2.78-.06-5.26-.18-7.46q12-.69,27.65-.69,7.36,0,21,.17,16,.18,21.19.17v43.55a9.08,9.08,0,0,1-3.41.52c-1,0-2.37-.08-4.22-.26s-3.27-.26-4.22-.26a10.62,10.62,0,0,0-1.8.26,9.58,9.58,0,0,1-1.79.26,4,4,0,0,1-2.88-1v-25a3.62,3.62,0,0,1-1.43-1.91c-1.08,0-2.67-.09-4.76-.26s-3.62-.26-4.58-.26c-1,1-4.48,1.56-10.59,1.56H729.6c0,6,.36,42.26,1.08,50l51.52,70.82v19.42Z" transform="translate(0.34 -0.1)" fill="#fff" opacity="0.2"/><path d="M244.38,951.28l-9.47,270.13s-6.36,117.45-6.36,118.08c0,2.51-4.28,34-4.28,34s-35.24,1.26-34,0L163.64,1147l-29,228.39a187.08,187.08,0,0,0-18.94-.94c-5.54,0-26,.19-26,.19V1227.8S88.53,812,84.92,750.6l19.15-1.9s25.53,27,25.53,29.14c0,5-2.11,225.51-2.11,225.51l-3.43,198.07L148.75,949.1s27,24.48,28.72,25.53c0,10.5,19.15,225.51,19.15,225.51l7.44-226.58-.53-73,20.74,27C226.67,928.27,244.38,951.28,244.38,951.28Z" transform="translate(0.34 -0.1)" fill="#fff" opacity="0.2"/><path d="M381.58,1372H255.81l-4.57-253.4-.91-4.09q.91-2.52.91-20.14c0-1.89.2-60.17.61-67.1a105.49,105.49,0,0,0,.31-13.21l1.52-3.78-.77-16.52,1-16,25.73-2.13,100.83,109.57-.13,37.33L381.58,1279q0,32.7-.31,51.87,0,3.76-.6,13.51-.32,8.49-.31,13.51Zm-30-31.79-1.83-58.86L348.57,1141v-52.48l-11.29-9.62L307.44,1047H288.92l-1.45,63.48.91,7.87-1.21,2.83,1.21,4.41-1.82,2.83,1.82.94c.2,24.77.2,169.16,0,210.91Z" transform="translate(0.34 -0.1)" fill="#fff" opacity="0.2"/><path d="M510.89,1124.05a65.55,65.55,0,0,0-1.88,17v9.75c.62,4,.94,46.42.94,48.94l-15.27,6.16c-6.3.21-15.16.84-27.75,1.89.84,5.66,11.18,24.43,12.86,36,.83.63,10,26.7,11.7,34l7.76,33.94v.94a8.39,8.39,0,0,1-.95,3.78l15.61,57.46a30.42,30.42,0,0,1-6.58.63l-22.22,0-48.55-167.65c-2.86.62-7.64,1.56-7.64,1.56l2.2,75.93v5q0,7.56-2.2,9.13a10.46,10.46,0,0,0,1.1,3.77,10.83,10.83,0,0,1,1.1,4.1,16.11,16.11,0,0,1-.94,5,97.54,97.54,0,0,0,1.89,10.7l-3.15,1.89q1.05,1.26,3.15,4.09a122.42,122.42,0,0,0-3.15,29,32.16,32.16,0,0,0,.63,5.35,96.39,96.39,0,0,1,.63,9.93H396.5a136,136,0,0,0,.95-15q0-2.52-.47-7.72t-.48-7.71V1326.2q0-11.64-1.41-34.3t-1.42-34c0-9.24,7.82-173.72,7.82-173.72l39.34-3.61,50.44-21.92L510,1076.75c-.63,2.09-.94,10-.94,24v19.83A3.93,3.93,0,0,0,510.89,1124.05ZM476,1116.33c0-3-.21-21.81-.63-23.74L428,1108.94a19.08,19.08,0,0,0-.63,5.14v5.78c.21,2.34.21,55.6,0,56.88h48C475.75,1173.74,476,1119.32,476,1116.33Z" transform="translate(0.34 -0.1)" fill="#fff" opacity="0.2"/><path d="M622.55,1334.11v39.8l-93.08-1.26,1.89-32.42q0-8.19-.63-22.66-.94-16.36-1-22.66c0-.21-5.73-155.79-7.41-256.72l43-53.78,2.5,207.48,1.26,24.87q0-.32-2.2,114.56l30.25,3.75Z" transform="translate(0.34 -0.1)" fill="#fff" opacity="0.2"/><path d="M783.91,1098.8c0,1.06-.74,2.1-2.2,3.15v206.94c0,4.2.41,7.24,1.26,9.13q-1.59,3.46-1.89,10.07-.33,8.82-.63,10.39a13.77,13.77,0,0,1,1.26,6.61c0,4-.74,6.92-2.2,8.81q-15.07,19.2-24.49,19.83a15,15,0,0,1-3.46.31q-2.52,0-7.23-.31t-6.59-.31c-23.45-.43-60.33-.64-81.26-.64a97,97,0,0,0-17.4,1.26q-1.89-6-3.45-36.5a5.49,5.49,0,0,0,1.89-3.78c4.61.42,6.63.94,15.87,1.57l1.58-2.52a25.71,25.71,0,0,1,0-13.85,28.12,28.12,0,0,1-1-7.55,44.81,44.81,0,0,1,1.89-12.27,28.48,28.48,0,0,1-3.78-2.52,5.13,5.13,0,0,1-.31-1.58c0-1.25.79-2.88,2.36-4.87s2.46-3.1,2.67-3.31L654,1284V1116.74a13.12,13.12,0,0,0-.94-5.66,6.51,6.51,0,0,1,1.89-2.84c-.48-.62-.87-.94-1.18-.94a.82.82,0,0,0-.71.32c.63-3.78.94-5.14.94-4.1a6.55,6.55,0,0,0-.47-2.2,6.27,6.27,0,0,1-.47-2.2,3.84,3.84,0,0,1,.94-2.2,53.14,53.14,0,0,1-.94-10.39c0-2.1.15-5.14.47-9.13s.47-7,.47-9.13a59.8,59.8,0,0,0-2.2-16.68c0-.42.83-63.6,2.51-73.46a68.81,68.81,0,0,0,.85-15.74l-1.1-42.12-20.2,19.87c.63-3.14,2.48-41,2.48-41l68.43-89.21L745.5,747l19.15,4.25,15.59,4v90.28c0,.62-1.47,47-.42,55.39q.3,9.13,1.26,27.7c0,1.68.31,116.53.94,120.73a70.7,70.7,0,0,1,1,9.76,4.83,4.83,0,0,1-1.26,2.83l1.26,2.83a67.25,67.25,0,0,0-2.21,16.36A52,52,0,0,0,783.91,1098.8Zm-40.29,230.28q0-5.61-2.2-29c1.26-2.71,1.88-4.58,1.88-5.62q0-3.43-2.36-10.15c-1.57-4.47,7.44-169.58,7.44-172.08a17.86,17.86,0,0,1,.94-5.62q-.32-.63-2.83-9.37c1.26-1,1.89-2,1.89-2.81a101,101,0,0,0-1.26-13.11,100.92,100.92,0,0,1-1.26-13.12q0-4.68.63-13.74c.42-6,.07-83.13.07-86.25l3.2-120.78-10.64-6.14L713.59,870.8,691.47,897s4.41,147.65,4.41,173q0,13.11-1.57,15,1.58,10.63,1.57,32.79v217.51H743A21.75,21.75,0,0,0,743.62,1329.08Z" transform="translate(0.34 -0.1)" fill="#fff" opacity="0.2"/></g></svg>