<svg id="fde59ac7-0e00-40d2-9f45-7de825a137d0" data-name="Layer 1" xmlns="http://www.w3.org/2000/svg" viewBox="0 0 401.72 443.59"><title>Origin51_logo_alien</title><polygon points="34.94 292.49 57.03 331.64 39.63 320.47 34.94 292.49" fill="#acbbbe"/><polygon points="394.39 204.49 396.83 227.72 401.73 192.26 394.39 204.49" fill="#acbbbe"/><polygon points="255.56 0 263.58 7.67 280.63 6.97 255.56 0" fill="#acbbbe"/><path d="M483.29,242.64c-3.21-6.24.18-7.72.15-14.44,0-4.46-1.58-23.41-4.29-27.14-3.82-8.33-8.19-15.45-14.1-25.39-12.16-24.55-26.67-42.11-47.44-60.06-6.11-5.27-18.88-16.28-27.16-18.22C379.3,90.57,374.1,88.6,360.7,83.13c-2-.81-9-.28-10.54-1.86-3.55-3.57-5.63-5.68-10.35-6.86-17.14-4.3-34.45-7-52.19-6-15.25-.86-30.31.84-45.24,3.83-62.54,12.51-109.33,46-137.32,104a133.7,133.7,0,0,0-10.39,30.82c-2.58,12.5-5.21,33.95-5,37C91,266,93.86,271.45,96.72,280.84c1.91,6.27-2.88,5.2.14,8.74,5.58,6.52,7.41,18.69,11.23,26.13,4.24,8.24,5.44,17.06,12.34,23.15,3.95,3.49,55.87,80,61.73,85.85,11.16,15.5,38.91,36.39,39.67,37.2,6.73,7.19,10.55,14.83,19.12,20.15,1.28.79,19.38,21,30.33,26.22,3.35,1.6,7,2.08,10.67,2.43,13.41,1.28,23.9-4.91,33.32-13.2,8.21-7.21,17.23-15.49,25.59-23.2,8.06-7.44,11.3-12.18,18-17.36,7.31-5.67,100.2-121.27,101-130.14.4-4.24,2-9,4.82-11.83,3.53,1.41,10-18.56,10.69-28.51.32-4.44,1.06-6.65,1.93-11.09,1.9-9.69,1.11-6.27,4.89-15.57C482.71,258.57,483.9,243.83,483.29,242.64ZM199.87,359a73.62,73.62,0,0,1-26.94-17q-8.69-8.32-17.2-16.84a9.53,9.53,0,0,1-2.4-4.05c-2.13-7.95-4.32-15.91-6-24-1.36-6.54-2-13.22-3-19.84,0-15.77,4.39-29.89,13.82-42.52,3.85-5.16,9.86-4.5,15-6.39,34.86-12.86,77.72,18.23,88.28,62.43,1.79,7.5,1.64,15.48,2.22,23.25s.62,15.48-1.92,23.09c-1.58,4.76-3.59,8.8-8.1,11.34q-5.59,3.13-11,6.59C229,363.82,214.65,364.13,199.87,359Zm135.2,60.2c-8.53,22.12-29.37,36.87-46.61,36.87-16.95,0-38.69-15.28-47.08-38.06a2.13,2.13,0,0,1,3.48-2.28c10.37,10.05,27.95,19.19,43.6,19.19,15.19,0,32.19-8.76,42.66-18.31A2.42,2.42,0,0,1,335.07,419.23Zm93.29-144c-.64,3.28-1.05,6.61-1.64,9.89-1.33,7.36-2.1,14.9-4.3,22-1.47,4.73-4.88,8.89-7.68,13.14-3.16,4.8-6,10-10,14-15,15-31.35,27.78-56.53,28.12a48.65,48.65,0,0,1-35.48-19.21c-2.06-2.71-3.06-6.26-4.35-9.5-1.63-4.12-3.51-8.23-4.43-12.52a33.2,33.2,0,0,1-.5-11.71,172.07,172.07,0,0,1,4.18-18.56c6.25-23.68,19.11-42.69,40.12-55.7a62.21,62.21,0,0,1,39.38-9.28c7.62.7,14.93,3.44,20,9.25s9.08,12.64,13.49,19.06c1.33,1.94,2.2,4.25,3.77,5.93C428.44,264.55,429.46,269.56,428.36,275.26Z" transform="translate(-89.64 -67.29)" fill="#acbbbe"/></svg>