<svg id="be79d05b-1c41-4bd9-b9cc-408c51d975ea" data-name="Layer 1" xmlns="http://www.w3.org/2000/svg" viewBox="0 0 403.03 445.03"><title>Origin51_alt-logo</title><polygon points="35.05 293.44 57.21 332.72 39.76 321.51 35.05 293.44" fill="#acbbbe"/><polygon points="395.67 205.15 398.12 228.46 403.03 192.89 395.67 205.15" fill="#acbbbe"/><polygon points="256.39 0 264.44 7.69 281.54 7 256.39 0" fill="#acbbbe"/><path d="M485.39,243c-3.22-6.26.19-7.74.16-14.49,0-4.47-1.59-23.48-4.31-27.22-3.83-8.36-8.21-15.5-14.15-25.47-12.19-24.64-26.75-42.25-47.59-60.26-6.13-5.29-18.94-16.34-27.24-18.28-11.2-6.84-16.41-8.82-29.86-14.3-2-.82-9-.29-10.57-1.87-3.56-3.58-5.65-5.7-10.38-6.88-17.19-4.32-34.56-7-52.36-6-15.3-.86-30.41.84-45.38,3.83C181,84.66,134,118.24,105.94,176.48A133.45,133.45,0,0,0,95.52,207.4c-2.6,12.54-5.23,34.06-5,37.1,1.38,22,4.22,27.45,7.09,36.86,1.91,6.3-2.89,5.22.15,8.78,5.58,6.53,7.43,18.75,11.26,26.21,4.25,8.26,5.46,17.12,12.38,23.22,4,3.5,56.05,80.29,61.93,86.14,11.19,15.54,39,36.5,39.8,37.31,6.75,7.22,10.58,14.88,19.17,20.22,1.29.79,19.45,21,30.44,26.3,3.36,1.61,7,2.09,10.7,2.44,13.46,1.29,24-4.93,33.43-13.24,8.24-7.23,17.29-15.54,25.67-23.28,8.09-7.46,11.34-12.22,18-17.41,7.34-5.69,100.52-121.67,101.36-130.57.4-4.25,2-9,4.84-11.87,3.54,1.42,10-18.62,10.72-28.6.32-4.45,1.06-6.67,1.93-11.12,1.91-9.72,1.12-6.29,4.91-15.62C484.81,259,486,244.23,485.39,243ZM201.06,359.81a73.8,73.8,0,0,1-27-17q-8.72-8.36-17.26-16.9a9.69,9.69,0,0,1-2.41-4.06c-2.13-8-4.33-16-6-24-1.36-6.56-2-13.27-3-19.9,0-15.83,4.4-30,13.86-42.66,3.86-5.18,9.89-4.52,15-6.41,35-12.91,78,18.28,88.57,62.63,1.8,7.52,1.65,15.53,2.23,23.32s.62,15.53-1.92,23.17c-1.59,4.77-3.6,8.83-8.13,11.37-3.74,2.11-7.44,4.31-11.05,6.62C230.28,364.62,215.89,364.93,201.06,359.81Zm135.64,60.4c-8.57,22.19-29.47,37-46.77,37-17,0-38.82-15.34-47.23-38.19a2.14,2.14,0,0,1,3.49-2.29c10.4,10.09,28,19.26,43.74,19.26,15.24,0,32.3-8.79,42.81-18.37A2.43,2.43,0,0,1,336.7,420.21Zm93.58-144.44c-.64,3.29-1,6.62-1.64,9.92-1.34,7.38-2.1,14.94-4.31,22.05-1.48,4.74-4.9,8.92-7.71,13.19-3.17,4.81-6.05,10-10.07,14.05-15,15.08-31.45,27.87-56.71,28.21a48.78,48.78,0,0,1-35.6-19.28c-2.07-2.71-3.07-6.27-4.36-9.52-1.64-4.14-3.52-8.26-4.45-12.57a33.37,33.37,0,0,1-.5-11.74,173.89,173.89,0,0,1,4.19-18.63c6.27-23.75,19.17-42.82,40.25-55.88a62.56,62.56,0,0,1,39.51-9.31c7.65.71,15,3.46,20.08,9.28s9.1,12.69,13.53,19.13c1.34,1.94,2.21,4.26,3.78,6C430.36,265,431.39,270.05,430.28,275.77Z" transform="translate(-90.47 -67.12)" fill="#acbbbe"/><path d="M454.53,189.86a1.2,1.2,0,0,0-.85.1,26.28,26.28,0,0,0-.26,3.19,47.24,47.24,0,0,0-2.65,8.29,10.94,10.94,0,0,0-.19,1.12c-.07.5-.13.87-.19,1.12-.23.9-3.18,12.56-3.17,12.5-.19.76-1.56,1.72-1.83,3.28s-.51,2.72-.7,3.49l-2,7.75c-1.89,7.47-5.72,15.15-7.24,19.72-2.17-2.17-3.55-5.27-4.81-5.59-1.43-.36-2.49-4.77-3.41-4.73l14.28-50.2a.38.38,0,0,0,.15-.26,1.13,1.13,0,0,0-.15-.85l.74-.73a13.85,13.85,0,0,0-.27-2.21,1,1,0,0,0,.9-.28,1.73,1.73,0,0,1-.39-1.73,3.68,3.68,0,0,1,.58-1.18,14.13,14.13,0,0,0,.34-3.17,4.32,4.32,0,0,0-2.2.56,4.37,4.37,0,0,1-2.11.59,1,1,0,0,0-.41-.21A4.44,4.44,0,0,0,436,181l2.71-10.69c1.57-1.16,7.44-5.87,10.64-7.91l.69-1.66c1.28,0,2.48,1.8,4.37,2.28s3.16,3.5,4.48,5.64l-2.93,13c.19.18.19.69,0,1.52a1.62,1.62,0,0,0-1.14,1.24,4.21,4.21,0,0,0-.06,1.15,4.14,4.14,0,0,1-.07,1.16,1,1,0,0,1-.65.75A16.17,16.17,0,0,0,454.53,189.86Z" transform="translate(-90.47 -67.12)"/><path d="M422.89,210.2a37.22,37.22,0,0,1-3.08,11.39l-5.59,8.34-5-3c-2.95-2.33-12.42-5.58-16.76-6.52-.06-.26.77-10.39,1-15.75.16-3.59.19-6.31.19-8.72a26,26,0,0,1,.42-5.37,59,59,0,0,1,8.7,1.75c-.06,1.11,0,3.14,0,4.31,0,1.69-.6,3-.47,6.4s-1.16,8.31-1.16,9.93c.45.53,2.49.47,4.5.47,2.63,0,6.51,1.54,5.9,1.09L421.75,174c.79-.89,2.22-3.26.62-3.48L412.9,165c-.17,0-3.68-2.26-4-2.32-.5.32-1.78-.47-2.56-.47a39,39,0,0,1-4.19-1.05c-1.39-.32-2.81-1.13-4.77-1.51l2-45.94h.17a2.24,2.24,0,0,1,.58.34,1.53,1.53,0,0,0,.75.34q.92-1.17,1.08-1.17h2.25c.5,0,6.84,5.37,7.56,5.7.45-.33,11.08,11.27,11.58,11.27s11.14,10.07,11.59,10,1.57.63,1.79.63c.45,0,.92.33,1.42,1,0,1.17.2,3.81-.19,4.33a49.49,49.49,0,0,1-.77,8.34c-2.8-1.16-4.19-2.79-7-4.54-1.22-.76-2.17-4.42-3.37-3.49s-18.07-17.07-18.2-15.64c-.12,1.28-.35,4.2-.35,5.24s-.7,11.7-.31,13.52c.61.46,1.32,1.33,1.67,1.6A19.83,19.83,0,0,0,416.2,154c3.49,2.91,15.13,7.8,15.13,7.8l3.73,2.21c-.34.85-.85.64-.85,1.55a9,9,0,0,0,.25,1.76,9.89,9.89,0,0,1,.25,1.76,4.88,4.88,0,0,1-.17,1.07v1a4.29,4.29,0,0,0,.17,1.27,4.3,4.3,0,0,1-1.17,1.66,1.51,1.51,0,0,0,1.17.2l-9.63,28a42.48,42.48,0,0,1-1.55,5.58Z" transform="translate(-90.47 -67.12)"/><path d="M336.24,117.47c.52-3.26.25-7.87.75-22.86,0-.51.11-.82.26-.94s.25-.12.28,0,.08-1.39.18-4.54c.06-1.76.66-4.37.3-4.64l8.4,1c.15,3.28,0,52.21,0,53.35l-.15,4.53-.3,9.26A91.45,91.45,0,0,0,346,164a21.27,21.27,0,0,0-.51,3.76l-.11,3.12-.17,5.2-.24,7.37a13.52,13.52,0,0,1-.43,3.58,3.61,3.61,0,0,1,.27,1.33c0,.38-1.52,1-1.13,1.95-.21-.14,1.07,3,.64,3.34,0,.63-.89,28.6-1.58,33.62-4.84,2.07-7.79,5.95-9.34,7.66-.31-12.75-.05-28.91.11-33.69l1.92-58q.06-2.09.09-6.33c0-2.84,0-5,.09-6.34,0-.5.08-1.29.2-2.36s.17-1.85.19-2.36C336,123.78,336.64,118,336.24,117.47Z" transform="translate(-90.47 -67.12)" fill="#fff"/><path d="M175.2,173.56l3,10.7c0,.13.26,1,.77,2.67.21.69,5.14,23.17,5.07,23.5l.3.17a2,2,0,0,0-.29.35,10.73,10.73,0,0,0,1,1.46,5.72,5.72,0,0,1-.26.61l.27,0,.31,1.5a.4.4,0,0,0,0,.26l.36.36a.45.45,0,0,0-.1.49,11.13,11.13,0,0,0,.52,1.29,11,11,0,0,1,.51,1.24,1.45,1.45,0,0,1-.8-.35.6.6,0,0,0,0,.58l-.09,0c-.18.06-.4-.07-.67-.39l-.11.43a4.48,4.48,0,0,0-1.41.31,2.37,2.37,0,0,1-1.46.18.16.16,0,0,0-.12.23l-1.22.38c-1.24.38-16.49,4.42-25,9.24l-9.31,6.2a18.46,18.46,0,0,0-2.73.78,5.31,5.31,0,0,1-2.8.4c-.09.24-1.29.4-1.53.48-2.9-7.79-7.42-41.49-9.07-46.84-.68-2.21-3.91-15.52-5.37-20.27-.07-.24-.07-10.56-.63-12.72-.06-.24,0-.9-.21-1a2,2,0,0,1,.14-.51l17.39-25.8,13.14-11.21a4.46,4.46,0,0,1,1.5-.26l.42,1.39c.15.57.27,1,.37,1.34,1.29,4.19,2.84,10.12,3.35,10.49.09.5.19,1.24.29,2.22.14.14,1.72,3.64,1.84,4,.06.2.12.49.19.87a6.92,6.92,0,0,0,.19.86,1.26,1.26,0,0,0,.66.86,23.49,23.49,0,0,0,.78,3.33,4.77,4.77,0,0,1,.71,1.5l-.24.53,6.85,17.48-.09.36.22.72.17.55.61,2,0,.06a.79.79,0,0,1-.08.26.24.24,0,0,0,0,.17,1.1,1.1,0,0,0,.23.33,1,1,0,0,1,.22.33l.1.3a1,1,0,0,0,.33.43,16.6,16.6,0,0,0,.61,2.38,19.69,19.69,0,0,1,.64,2.32A1.52,1.52,0,0,0,175.2,173.56Zm-6.77,13.58a.81.81,0,0,0-.34-.49c-.18-.69-3.72-12-4.16-13.24l-.31-.44a2.07,2.07,0,0,1-.3-.56c-.49-1.61-1.1-3.71-1.81-6.3-1-3.43-7.5-21.81-7.71-22.62a1.24,1.24,0,0,1-.6,0l.11-.76c-.12-.4.08,1.54-.17.73l-.57-1.87c-.52-1.68.05-5.75-.17-7-.79.27-2,1.5-3.84,1.84s-2.16,2-3.68,2.31c.11.36-13,19.29-13,19.73.13,0,.5.55.58.79l-.06.61c.31.57.18,1,.74,2.72l.74,2.41a6.62,6.62,0,0,0,1,2.26c0,.18,1.77,7.45,1.65,7.66l.76.36a4.56,4.56,0,0,1-.51,1.08c.15.49-.1,7.12.36,8a15.3,15.3,0,0,1,.92,2.09,6.51,6.51,0,0,1,.28,2,2.42,2.42,0,0,0,.67.59,1.28,1.28,0,0,0,.07.37l.11.37a1.83,1.83,0,0,1,.17.4.64.64,0,0,1-.36.45c.19.2.45.52.79.94-.1.26-.23.4-.36.44.43.31,4.25,25.55,4.44,26.16a12.2,12.2,0,0,1,.31,1.42,11.18,11.18,0,0,0,.3,1.36,2.82,2.82,0,0,0,.41.87c2.59-1.06,27.21-9.69,29.18-10.29-.14-.57-.3-1.14-.47-1.7-.29-.93-4.87-20.94-5.11-21.39A2.1,2.1,0,0,0,168.43,187.14Z" transform="translate(-90.47 -67.12)" fill="#fff"/><path d="M220.05,128.65a1.48,1.48,0,0,1-.34.72c-2.51.6-1.92,1.67-2.09,1.72-.56.19-20.93,7.83-21.08,8.2,1.64,3.1,13,22,14.48,24.73q1.57,2.34,4.32,7.31a12.93,12.93,0,0,0,.76,1.25c.39.6,14.34,38.36,17.61,45.09.14.27,3.94,16.42,4.66,18-.84.28-5.12-4-6.67-5.43-.71-.63-4.5-4.5-5.44-4.19-1-1.48-2.95-10.37-5-13.35-.92-1.38-13.59-33-17.54-40.12-.29-.4-13.49-23.32-14-24.21-.51-1.2-1.42-4-2.56-6.29a50.72,50.72,0,0,0-5.36,1.4c.18.54,2.47,6.93,2.56,7.22,2,5.38,11.38,50.13,11.35,50l.57,1.73.36,1.11.53,1.6.5,1.54c.13.36.32.89.58,1.58s.45,1.19.56,1.52c.45,1.36,4.06,7.76,4.72,11l-5.2-.46c-1.21.4-3.67-1.35-5-.62a5.33,5.33,0,0,1-1.38-2.44q.84,2.59-.88-2.65a9.09,9.09,0,0,0-1.22-2.68,5.61,5.61,0,0,0-.38-2.2c-.19-.58-.52-1.42-1-2.54s-.82-2-1-2.54a4.16,4.16,0,0,1-.23-1.43,1.24,1.24,0,0,1-.72-.58c0-.09,0-.13.19-.13a8.47,8.47,0,0,0-.55-1.87,5.81,5.81,0,0,0-.87-1.77c-.07-.8-14.62-58.53-14.75-58.91s-.39-1.12-.74-2-.59-1.51-.71-1.88c-1.08-3.07-2.86-8.35-3.67-10.82l-2.15-7.75-.46-1.38-.48-1.45-.17-.53-.15-.46c-.15-.45-.1-.72.14-.8,2.24-.74,14.88-10.18,18.78-12.69,7.22-4.66,24.11-12.08,26.31-12.81l.26.81a12.66,12.66,0,0,0,.63,1.56q.2.42.84,1.5a8.48,8.48,0,0,1,.85,1.7A3.14,3.14,0,0,1,210,94Zm-13-4.26c3.72,1.17-1.72-13.15-5.12-23.51-.1-.29-.23-.74-.39-1.34s-4.64.69-4.74.41l-22.35,15.36c.11.33.06,3,.36,3.55a9.92,9.92,0,0,1,.62,1.34c.16.49,4,13.41,3.87,13.81Z" transform="translate(-90.47 -67.12)" fill="#fff"/><path d="M248.46,187c1.88,12,6.91,47.85,6.91,56.49,0,.29-.05.47-.16.55s-.18.07-.19,0,0,.8,0,2.61c0,1-.12,6.86.14,7l-6.21-7.14c-2.17-1.86-5.38-5.67-5.41-7.23a8.2,8.2,0,0,1,.14-1.31,6,6,0,0,0,0-1.74c.08-.87-8.48-51.25-8.48-52.27,0-4.43-3.82-20-3.82-20.7s-1.62-8.74-1.8-9.54a10,10,0,0,0,.27-2.18v-6.1c0-.36-3.39-9.5-3.27-10.37-.14-2.18-2.09-12.56-2.09-14.67,0-3.55-7.59-34.57-7.22-37.48,4-1.16,9.55-2.56,12.34-2.09.52,7.33,10.66,45,10.66,47.78l6.34,40.44c0,.8,0,2,.08,3.65s.08,2.85.08,3.65c0,.29,0,.74-.08,1.36s1.31,3.63,1.31,3.92C248,182.83,248.16,186.73,248.46,187Z" transform="translate(-90.47 -67.12)" fill="#fff"/><path d="M309.76,267.34a8,8,0,0,1-2.48.09c-2.4,0-3.79-.14-4.16-.41-.89.27-15.45-.61-17.26-.61-1.44,0-10.86-.78-16-2.33-.19,0-1-.32-1.56-.47a9.3,9.3,0,0,0-1.55-.31c-.18,0-.4.84-.62,1.24a16.49,16.49,0,0,0-4.5-.77c-.3-3.21-.43-8.37-.43-12,0-.45,0-1.11-.09-2s-.08-1.52-.08-1.92c0-2-.06-5.05-.17-9S243,98,243,95.93c0-.18-.93-1.46-1-1.82a6.7,6.7,0,0,1-.08-.81c0-1,0-2.38-.06-4.3s0-3.37,0-4.36a39.32,39.32,0,0,1,.33-7c6.52-1.4,10.63-2.87,16.38-2.72,6.75.18,41.36,1.66,44.54,1.71s26.19,6.21,27.78,6.21a1.32,1.32,0,0,0,.39.6c-.15,1,.39,3.48.39,4.52,0,.54-1.51.07-1.48.38.19,1.26.28,1.71.28,1.35a2.89,2.89,0,0,1-.14.74,3,3,0,0,0-.14.74,2,2,0,0,0,.17.74.24.24,0,0,0-.06.14.9.9,0,0,0,.09.34,9.63,9.63,0,0,1,.37,1.5L326.45,133l-11.72-.39L317.21,103l-1.86-12.26L279.5,87.92c-1.75-.46-24.27-.3-24.52.15l-.61,2.67,18.85,144.39a.48.48,0,0,0,.33.4,8.24,8.24,0,0,0-.33,1.35,1.23,1.23,0,0,1,.33.74,35.14,35.14,0,0,1-.33,4.39l.55.4a5.94,5.94,0,0,0-.55,2,.6.6,0,0,0,.33.54v1.21a1.41,1.41,0,0,0,.22.95,1.6,1.6,0,0,1-.22.67q.13.67.15.81a3,3,0,0,1,0,.34c0,.18,1,.67.66,3.64l25.06,1.71c.19-2.75.15-5.08.24-5.12,0-.72,2.32-1.52,2.32-2.33,0-1.44.89-.41.7-2.79-.22-2.84,6.68-19.79,8.31-37.56l2.7-22.68c-.22-.08-4.24-1.46-4.72-1.46L284,179l-.41-8.37.55.2h.78c.56,0,14.44.38,19.09.62,1.07.05,9.43,2.17,10,2.17h3.05c1.11,0,.65.89,1.5.8,0-.09,4.75,1.22,4.86,1.22-.11,0,3.11,1.4,5,2.09l-2.5,24.89c-.28,1.34-2.71,20.9-2.62,21.75.11,1.53-9.86,24.36-9.86,26.7,0,.85-.54,4.12-.54,5.9s-1.71,4.73-1.71,5.59C311.16,264.32,309.65,265.94,309.76,267.34Z" transform="translate(-90.47 -67.12)" fill="#fff"/><path d="M391.45,167.59a1.19,1.19,0,0,1-.49,1,12,12,0,0,0,.13,1.45,14.32,14.32,0,0,1,.12,1.54v.26a1.16,1.16,0,0,0,.24.62,8.65,8.65,0,0,1-.24,1.31v1.94a15.62,15.62,0,0,0,.24,2.8,1.2,1.2,0,0,1-.49.88,1.39,1.39,0,0,0,.49.7c-.22.06-.28.71,0,.71-.45.64-1.23,8.14-1.91,5.82-.58,4.45-3.78,30-3.57,33.48l-8.35-.18a11.3,11.3,0,0,0-.65-2.61c0-.18-.39-1.82-.31-2.17-.12,0-.27-1.49-.47-2a45.56,45.56,0,0,0-2.64-7c-.77-1.76-2.33-16.87-4-23.29-2.07-7.7-6-37.87-7-42.37,0,.41-1,5.16-1.07,6a27,27,0,0,0,.43,5.47,6.74,6.74,0,0,1-.16,1.18,7.86,7.86,0,0,0-.15,1.27.94.94,0,0,0,.12.53c0,.52-2.74,67.66-2.74,67.66-.55.29-2.69,1.11-4.34,2-.63.35-2.17,1.09-2.75.16-.08,0-.18.07-.3.22s-.22.22-.3.22c-.87,0,.06-.27-.53-.44-.69-24.75,2.95-70.48,2.95-73.41,0-8.19-3.28-58.38-2.8-64.88a15.11,15.11,0,0,0,3.73.31c1.13,0,1.64,1.54,2.33,1.24a11.08,11.08,0,0,1,.06,1.57c.16.18.38.41.67.7L370.74,136a2.54,2.54,0,0,0,.61,1.13l-.12.35c.16.46.38,1.16.66,2.09l-.18.18a5,5,0,0,0,.67,1.39,9.89,9.89,0,0,1,.18,1.49q1.21,3.57,2.07,5.58h-.12a.39.39,0,0,0-.37.26,2.14,2.14,0,0,1,.68.79c.33,1.34.87,3.33,1.61,5.95.12,1.35.25,2.4.37,3.15.21,1.23,4.1,12.31,4.51,12.95l-1.55-48.89c.12-.35-1.48-23.77-1.24-24.83l9.93,5c.25,4.45,2.4,38.42,2.64,41.28,0,.06-1,1.07-1,1.24v1.58a18.73,18.73,0,0,0,.23,2.46c.14.23.29.35.44.35a.67.67,0,0,0-.48.27c.1.23.27.61.48,1.14v3.33a1.53,1.53,0,0,1-.3,1.14,6.92,6.92,0,0,0,.15,1.23,7.14,7.14,0,0,1,.15,1.23,1.26,1.26,0,0,1-.3,1l.73,1.05a1.86,1.86,0,0,0-.43,1.23,3,3,0,0,0,.67,1.84c-.39,0-.61.12-.67.35.28.3.43.5.43.62v1.4a8.42,8.42,0,0,0,.12,1.14A8.85,8.85,0,0,1,391.45,167.59Z" transform="translate(-90.47 -67.12)" fill="#fff"/></svg>